<?xml version="1.0" encoding="UTF-8"?>
<svg version="1.1" xmlns="http://www.w3.org/2000/svg" width="1366" height="768">
<path d="M0 0 C450.78 0 901.56 0 1366 0 C1366 253.44 1366 506.88 1366 768 C915.22 768 464.44 768 0 768 C0 514.56 0 261.12 0 0 Z " fill="#FDFDFD" transform="translate(0,0)"/>
<path d="M0 0 C1.40676696 -0.00573832 1.40676696 -0.00573832 2.84195346 -0.01159257 C5.98630124 -0.02191594 9.1304662 -0.01793162 12.27482605 -0.01396179 C14.52856617 -0.01830867 16.78230482 -0.02349174 19.03604126 -0.02944946 C25.16007058 -0.04285439 31.28403825 -0.04341638 37.40807939 -0.04088616 C42.51990147 -0.0398173 47.63171104 -0.04469774 52.74353045 -0.04949158 C65.49392109 -0.06122722 78.24426709 -0.06035878 90.9946573 -0.05393478 C102.05966337 -0.04876787 113.12458134 -0.06001508 124.18956999 -0.07903299 C135.55770256 -0.09842172 146.92578134 -0.1063742 158.293935 -0.10290974 C164.67358612 -0.10109639 171.05315659 -0.10373823 177.43279457 -0.11762428 C183.43363751 -0.13019662 189.4343042 -0.12826397 195.43514442 -0.11521339 C197.63615478 -0.11284665 199.83717751 -0.11558577 202.03817368 -0.12383652 C205.0459172 -0.13429733 208.05306865 -0.12620825 211.06079102 -0.11352539 C212.36309818 -0.12458682 212.36309818 -0.12458682 213.69171458 -0.13587171 C220.96799548 -0.07145504 227.36791325 1.49263927 232.97087097 6.44819641 C233.90673035 7.24290344 233.90673035 7.24290344 234.86149597 8.05366516 C241.647803 16.10884052 241.28912125 24.27289225 241.22257996 34.28022766 C241.22636719 35.90387947 241.23187056 37.52752804 241.23895264 39.15116882 C241.25287186 43.54379253 241.24176244 47.936023 241.22524142 52.32862473 C241.21135122 56.9346469 241.21785552 61.54064716 241.22137451 66.14668274 C241.2240735 73.88038948 241.21062785 81.61394074 241.18742371 89.34761047 C241.16081594 98.27724145 241.15906805 107.20661254 241.17081207 116.13626957 C241.1816071 124.74120456 241.17538924 133.34604594 241.16125679 141.95097351 C241.15551195 145.60628992 241.15556783 149.26153748 241.16032219 152.91685486 C241.1651094 157.22452964 241.15491839 161.53192139 241.13336754 165.83954239 C241.12782319 167.4164853 241.12731267 168.99345553 241.1323204 170.57040024 C241.16368104 181.86599424 240.52443055 189.99262598 232.55680847 198.56538391 C228.01718447 202.75729203 222.71560596 204.37928218 216.65903091 204.39491749 C215.45271354 204.40160425 215.45271354 204.40160425 214.22202611 204.40842611 C212.90531143 204.40814956 212.90531143 204.40814956 211.56199646 204.40786743 C210.62500624 204.41154412 209.68801603 204.41522081 208.72263217 204.41900891 C205.57522969 204.43004356 202.42786022 204.43388921 199.28044128 204.43769836 C197.02684932 204.44396311 194.77325838 204.45060992 192.51966858 204.45761108 C186.39146815 204.47501806 180.26327552 204.48557178 174.1350565 204.49381661 C170.30703916 204.49896684 166.47902424 204.50504252 162.65100861 204.51132774 C152.04801344 204.52819518 141.44502042 204.54283052 130.84201431 204.55007648 C128.09199777 204.55198629 125.34198123 204.55390664 122.59196472 204.55586243 C121.90848381 204.55634617 121.22500291 204.55682991 120.52081046 204.55732831 C109.44925772 204.56562838 98.37781303 204.59096647 87.30630746 204.6234431 C75.9336911 204.65653051 64.56114897 204.67419404 53.18847728 204.67772073 C46.80541691 204.68007265 40.42252742 204.68905205 34.03951263 204.7141819 C28.03455529 204.73744167 22.0298816 204.7417041 16.0248909 204.73142052 C13.82225985 204.73092456 11.61961493 204.73726247 9.41702652 204.75097656 C6.4069043 204.76866847 3.39780307 204.76160215 0.38768005 204.7484436 C-0.91565029 204.76489747 -0.91565029 204.76489747 -2.24531054 204.78168374 C-9.2596543 204.7077994 -14.40815828 202.72608558 -19.74006653 198.14741516 C-20.68752747 197.05880188 -20.68752747 197.05880188 -21.65412903 195.94819641 C-22.3012384 195.2301886 -22.94834778 194.51218079 -23.61506653 193.77241516 C-27.01155862 188.64578507 -27.52982362 183.19733168 -27.54655457 177.17074585 C-27.55108568 176.49253971 -27.55561679 175.81433357 -27.56028521 175.11557573 C-27.57286148 172.86187643 -27.5713133 170.60842088 -27.56965637 168.35469055 C-27.57564575 166.73118787 -27.58245224 165.10768803 -27.5900116 163.48419189 C-27.60763429 159.08749994 -27.61236532 154.6908859 -27.61364317 150.29416203 C-27.61506712 147.54471675 -27.61934127 144.79529114 -27.6246376 142.04585075 C-27.64312353 132.44696169 -27.65130977 122.84812808 -27.6497345 113.2492218 C-27.64853257 104.31220437 -27.66964864 95.37542823 -27.70122182 86.43847185 C-27.72739592 78.75503058 -27.73810136 71.07166808 -27.73682368 63.38818258 C-27.7363145 58.80373638 -27.74197352 54.21950487 -27.76317978 49.63510323 C-27.78258206 45.32331538 -27.78267319 41.01194668 -27.76814651 36.70014381 C-27.76605998 35.12157324 -27.7707501 33.54297628 -27.78286743 31.96445084 C-27.85128804 22.43083996 -27.70352961 15.24705127 -21.09553528 7.79975891 C-19.97985168 6.85229797 -19.97985168 6.85229797 -18.84162903 5.88569641 C-18.10041809 5.23858704 -17.35920715 4.59147766 -16.59553528 3.92475891 C-11.20245478 0.05047174 -6.41773201 -0.02772291 0 0 Z " fill="#2C2F2B" transform="translate(758.2791290283203,177.7393035888672)"/>
<path d="M0 0 C87.3609366 -0.08828248 174.72188631 -0.17655815 304.8666687 -0.25405884 C306.38552415 -0.25489554 307.9043796 -0.25573225 309.42323505 -0.25656897 C341.30492789 -0.27410536 373.18662126 -0.29040562 405.06831544 -0.30527807 C421.08372204 -0.31275039 437.09912852 -0.32046023 453.1145349 -0.32839465 C455.53038738 -0.32959014 457.94623986 -0.33077885 460.36209234 -0.33196728 C497.55955961 -0.35032557 534.7570151 -0.37377539 571.95446777 -0.4119873 C573.15399005 -0.41321939 573.15399005 -0.41321939 574.3777451 -0.41447637 C587.27084797 -0.42775048 600.16395039 -0.44145218 613.05705275 -0.45521064 C650.19652426 -0.49483632 687.33598669 -0.53129627 724.47547722 -0.54683876 C725.62127869 -0.54732058 725.62127869 -0.54732058 726.79022767 -0.54781213 C743.55964394 -0.55480698 760.32906032 -0.56017598 777.0984776 -0.5640059 C783.84609688 -0.56557561 790.5937161 -0.56737933 797.3413353 -0.56926346 C798.07982925 -0.56946402 798.81832321 -0.56966458 799.57919578 -0.56987122 C823.36704173 -0.576448 847.15482033 -0.60206796 870.94263911 -0.63769325 C894.90838787 -0.67349774 918.8740713 -0.69059109 942.83984747 -0.68174393 C957.70991831 -0.67627553 972.57973993 -0.68696301 987.44976565 -0.72478526 C996.9351049 -0.74726638 1006.4202842 -0.74799484 1015.90563445 -0.73099088 C1021.31188745 -0.72192339 1026.71767873 -0.7223564 1032.12388243 -0.74929909 C1037.04591967 -0.77364248 1041.96713643 -0.7701599 1046.88916158 -0.74483985 C1048.65512945 -0.74056781 1050.42115824 -0.74627516 1052.18704813 -0.76341147 C1067.1776919 -0.8996138 1078.77279677 1.81698582 1089.93359375 12.68359375 C1097 20.60491493 1097 20.60491493 1097 25 C734.99 25 372.98 25 0 25 C0 16.75 0 8.5 0 0 Z " fill="#361300" transform="translate(0,743)"/>
<path d="M0 0 C5.61 0 11.22 0 17 0 C17 253.44 17 506.88 17 768 C-60.22 768 -137.44 768 -217 768 C-217 759.75 -217 751.5 -217 743 C-145.39 743 -73.78 743 0 743 C0 630.47 0 517.94 0 402 C-8.58 402 -17.16 402 -26 402 C-30.5 397.5 -30.5 397.5 -30.609375 393.890625 C-30.65771484 392.75947266 -30.65771484 392.75947266 -30.70703125 391.60546875 C-30.72121094 390.82816406 -30.73539063 390.05085938 -30.75 389.25 C-30.77964844 388.45722656 -30.80929687 387.66445313 -30.83984375 386.84765625 C-30.91027787 384.89897906 -30.95743482 382.94948505 -31 381 C-38.21539256 388.60541378 -45.31382808 396.19656997 -51.859375 404.390625 C-54.15120465 407.18431516 -56.55231812 409.84208778 -59 412.5 C-63.11378909 416.9698512 -66.97087297 421.59044893 -70.78515625 426.31640625 C-72.95632827 428.94708557 -75.20241357 431.47942424 -77.5 434 C-81.33702759 438.21476606 -84.95296859 442.56790841 -88.53515625 447 C-91.8655986 451.05353364 -95.2968054 455.01759609 -98.7512207 458.96582031 C-101.25673075 461.85598324 -103.56845685 464.76654767 -105.734375 467.921875 C-106.48203125 468.93765625 -107.2296875 469.9534375 -108 471 C-108.66 471 -109.32 471 -110 471 C-110.24621094 471.55558594 -110.49242187 472.11117188 -110.74609375 472.68359375 C-112.24004406 475.44344588 -114.05058408 477.65316859 -116.0625 480.0625 C-116.866875 481.031875 -117.67125 482.00125 -118.5 483 C-119.325 483.99 -120.15 484.98 -121 486 C-126.72071047 492.95762084 -132.38377604 499.95789535 -138 507 C-140.16590163 509.70894552 -142.33298452 512.41694547 -144.5 515.125 C-145.55210243 516.44008889 -146.60418732 517.75519181 -147.65625 519.0703125 C-148.4296875 520.03710938 -149.203125 521.00390625 -150 522 C-150.66 521.67 -151.32 521.34 -152 521 C-144.6641699 511.59132011 -137.20931904 502.28839446 -129.66601562 493.04541016 C-127.99682363 490.99610029 -126.3334489 488.94220867 -124.671875 486.88671875 C-119.12428555 480.02817864 -113.53100071 473.21931461 -107.80761719 466.5065918 C-105.18548488 463.4245793 -102.62907304 460.30344761 -100.125 457.125 C-96.15354451 452.1054078 -91.94845485 447.3035176 -87.73168945 442.49047852 C-84.0530408 438.27341192 -80.56344634 433.96949713 -77.26953125 429.44140625 C-76.85058594 428.96574219 -76.43164062 428.49007813 -76 428 C-75.34 428 -74.68 428 -74 428 C-73.78472656 427.47664063 -73.56945313 426.95328125 -73.34765625 426.4140625 C-71.46614434 423.04370204 -68.96642619 420.26687937 -66.4375 417.375 C-65.63276245 416.4456665 -65.63276245 416.4456665 -64.81176758 415.49755859 C-60.92537293 411.02273707 -56.97977568 406.60290423 -53 402.2109375 C-47.20540252 395.80519107 -41.60935832 389.2257724 -35.9987793 382.65917969 C-32.10322922 378.10322922 -32.10322922 378.10322922 -31 377 C-30.88918968 374.16413326 -30.83836006 371.34851404 -30.82421875 368.51171875 C-30.80101705 366.75584743 -30.77689957 364.99998802 -30.75195312 363.24414062 C-30.71684047 360.46582119 -30.68750212 357.68793807 -30.67407227 354.90942383 C-30.65860011 352.23464583 -30.61839046 349.56115658 -30.57421875 346.88671875 C-30.57612717 346.05742355 -30.57803558 345.22812836 -30.58000183 344.373703 C-30.56351089 343.59642349 -30.54701996 342.81914398 -30.5300293 342.01831055 C-30.52416306 341.33737839 -30.51829681 340.65644623 -30.51225281 339.95487976 C-30 338 -30 338 -26 334 C-17.42 334 -8.84 334 0 334 C-0.33 311.56 -0.66 289.12 -1 266 C-7.92506996 273.63726691 -7.92506996 273.63726691 -14.5 281.5 C-18.11382531 285.96708963 -21.8912648 290.23567038 -25.76171875 294.48046875 C-28.02847158 297.03204917 -30.17540087 299.65171532 -32.3125 302.3125 C-36.725387 307.76871405 -41.44471028 312.88615451 -46.2265625 318.015625 C-52.07440259 324.28925973 -57.59225047 330.85263111 -63.16918945 337.3659668 C-78.73889282 355.54387872 -78.73889282 355.54387872 -85.75 363.25 C-89.50155347 367.38964521 -93.03676117 371.67369443 -96.55078125 376.015625 C-99.31811006 379.38761736 -102.1515737 382.69656069 -105 386 C-110.09986731 391.92095076 -115.0785313 397.92958548 -120 404 C-121.3948092 405.70916961 -122.7906717 407.41748011 -124.1875 409.125 C-124.92613281 410.02863281 -125.66476562 410.93226563 -126.42578125 411.86328125 C-128.37421232 414.24175388 -130.33228932 416.61208449 -132.29296875 418.98046875 C-138.33970531 426.28993071 -144.33282268 433.62846574 -150.1652832 441.11035156 C-152.91628376 444.63578703 -155.71563422 448.11341262 -158.5625 451.5625 C-163.07070906 457.0413377 -167.39167654 462.65446114 -171.69433594 468.29443359 C-173.06334931 470.08275211 -174.44073351 471.86435287 -175.8203125 473.64453125 C-176.27929932 474.23766113 -176.73828613 474.83079102 -177.21118164 475.44189453 C-178.09461723 476.58309859 -178.97917405 477.72343577 -179.86499023 478.86279297 C-182.13795547 481.79830922 -182.13795547 481.79830922 -184 485 C-184.66 485 -185.32 485 -186 485 C-184.45011892 479.99637158 -181.44277746 476.61575235 -178.125 472.6875 C-173.61444982 467.25093868 -169.25244183 461.74970804 -165.0625 456.0625 C-159.23197312 448.18437639 -153.02603292 440.6507778 -146.75683594 433.12011719 C-143.87499318 429.64236253 -141.03109767 426.13404049 -138.1875 422.625 C-137.11335656 421.30072016 -136.03914011 419.97649954 -134.96484375 418.65234375 C-134.46065918 418.03085449 -133.95647461 417.40936523 -133.43701172 416.76904297 C-130.66693047 413.35891577 -127.88332151 409.95989937 -125.09765625 406.5625 C-123.68482406 404.83658209 -122.27604291 403.10734098 -120.87109375 401.375 C-116.15330587 395.56849184 -111.33217351 389.86370834 -106.4465332 384.19873047 C-103.36310885 380.61572947 -100.34495201 376.99083279 -97.375 373.3125 C-93.57440437 368.62692813 -89.5536202 364.18788367 -85.46875 359.75 C-82.28159538 356.19975182 -79.30519735 352.49930743 -76.3125 348.78515625 C-73.00209243 344.79812821 -69.49659616 341.00945606 -65.96875 337.21484375 C-63.97328212 335.16320879 -63.97328212 335.16320879 -63 333 C-62.34 333 -61.68 333 -61 333 C-60.76410156 332.44441406 -60.52820312 331.88882812 -60.28515625 331.31640625 C-58.6872248 328.43624409 -56.694995 326.33630924 -54.4375 323.9375 C-51.0431595 320.28859927 -47.80023354 316.58418125 -44.6875 312.6875 C-41.13211689 308.27630786 -37.3803204 304.12210752 -33.5 300 C-28.9190035 295.12928323 -24.57670352 290.15548974 -20.39453125 284.93359375 C-16.86489998 280.6093636 -13.18977677 276.41469471 -9.515625 272.21313477 C-8.72478516 271.30712524 -8.72478516 271.30712524 -7.91796875 270.3828125 C-7.21837036 269.58447998 -7.21837036 269.58447998 -6.50463867 268.77001953 C-6.00810791 268.18591309 -5.51157715 267.60180664 -5 267 C-3.97950624 266.03406276 -3.97950624 266.03406276 -2.93839645 265.04861164 C-0.09780989 260.58108114 -0.4409067 256.64604841 -0.48101807 251.45219421 C-0.47351681 250.37803137 -0.46601556 249.30386853 -0.458287 248.1971553 C-0.43796011 244.59177227 -0.44612269 240.98701512 -0.45410156 237.3815918 C-0.44536932 234.79959997 -0.43488477 232.21761357 -0.42277527 229.63563538 C-0.3994599 224.07373499 -0.39071486 218.51196499 -0.39188385 212.95001793 C-0.39355292 204.90842296 -0.37322021 196.86700186 -0.34752855 188.82545326 C-0.30644203 175.77841937 -0.28313325 162.73141674 -0.27099609 149.68432617 C-0.25916839 137.010793 -0.2389732 124.33731868 -0.20751953 111.66381836 C-0.20558343 110.88253914 -0.20364733 110.10125991 -0.20165256 109.29630556 C-0.191888 105.37683171 -0.18195889 101.4573583 -0.17194796 97.53788507 C-0.08911869 65.02528126 -0.03543355 32.51269038 0 0 Z " fill="#F0F0F0" transform="translate(1349,0)"/>
<path d="M0 0 C1.06668411 -0.0071553 2.13336823 -0.01431061 3.2323761 -0.02168274 C4.98797348 -0.02571609 4.98797348 -0.02571609 6.77903748 -0.02983093 C8.62828575 -0.03968773 8.62828575 -0.03968773 10.51489258 -0.04974365 C14.60611716 -0.0694979 18.6973025 -0.08114844 22.78855896 -0.09111023 C24.19960487 -0.09515908 25.61065058 -0.09927604 27.02169609 -0.10346031 C33.65532336 -0.1225132 40.28893952 -0.13674093 46.92258888 -0.14507228 C54.56396837 -0.15482891 62.20505696 -0.18110646 69.84633404 -0.22157317 C75.76157859 -0.2518165 81.67674019 -0.26654912 87.59206051 -0.26985329 C91.1203283 -0.27219552 94.6482854 -0.28104617 98.1764698 -0.30631447 C102.12090787 -0.33410634 106.06496937 -0.32973898 110.00950623 -0.32279968 C111.16573486 -0.33560974 112.3219635 -0.3484198 113.51322937 -0.36161804 C124.72673574 -0.28994748 132.51836672 2.91472332 140.64402771 10.63154602 C147.39016706 18.33458457 149.23605322 26.51486317 149.11277771 36.51045227 C148.38294506 46.50271989 143.27786835 53.63952565 135.84715271 60.14717102 C130.09526549 63.77119245 124.53704935 66.26283642 117.69430542 66.29434204 C116.62762131 66.30149734 115.56093719 66.30865265 114.46192932 66.31602478 C113.29153107 66.31871368 112.12113281 66.32140259 110.91526794 66.32417297 C109.68243576 66.33074417 108.44960358 66.33731537 107.17941284 66.34408569 C103.08818826 66.36383994 98.99700292 66.37549048 94.90574646 66.38545227 C93.49470055 66.38950112 92.08365484 66.39361809 90.67260933 66.39780235 C84.03898206 66.41685524 77.4053659 66.43108297 70.77171654 66.43941432 C63.13033705 66.44917095 55.48924846 66.4754485 47.84797138 66.51591522 C41.93272683 66.54615854 36.01756523 66.56089116 30.10224491 66.56419533 C26.57397712 66.56653756 23.04602002 66.57538821 19.51783562 66.60065651 C15.57339755 66.62844838 11.62933605 66.62408102 7.68479919 66.61714172 C5.95045624 66.63635681 5.95045624 66.63635681 4.18107605 66.65596008 C-7.03243032 66.58428952 -14.8240613 63.37961872 -22.94972229 55.66279602 C-29.69586164 47.95975747 -31.5417478 39.77947887 -31.41847229 29.78388977 C-30.68863964 19.79162215 -25.58356293 12.65481639 -18.15284729 6.14717102 C-12.40096007 2.52314959 -6.84274393 0.03150563 0 0 Z " fill="#09B467" transform="translate(111.15284729003906,516.8528289794922)"/>
<path d="M0 0 C34.03065639 -0.13749881 68.06124336 -0.24314185 102.0921161 -0.30639198 C106.1147966 -0.31389572 110.13747656 -0.3216617 114.16015625 -0.32958984 C115.36136079 -0.33195064 115.36136079 -0.33195064 116.58683209 -0.33435912 C129.53314525 -0.3604278 142.47929764 -0.40771346 155.42551561 -0.46291678 C168.72129908 -0.51913549 182.01699869 -0.55237578 195.31289613 -0.56453097 C203.50940993 -0.57274111 211.70546925 -0.59861917 219.90184306 -0.6474988 C225.53149676 -0.67935017 231.16091741 -0.68877017 236.79065455 -0.68100826 C240.03316804 -0.67718593 243.27472998 -0.68615201 246.51713753 -0.71523285 C264.23000112 -0.8662463 277.62085552 -0.27823211 290.93359375 12.68359375 C298 20.60491493 298 20.60491493 298 25 C186.79 25 75.58 25 -39 25 C-31.44323374 18.95458699 -24.12290019 14.20990933 -15 11 C-14.67 10.34 -14.34 9.68 -14 9 C-11.71484375 8.1484375 -11.71484375 8.1484375 -8.9375 7.375 C-8.01839844 7.11460937 -7.09929688 6.85421875 -6.15234375 6.5859375 C-5.44207031 6.39257812 -4.73179687 6.19921875 -4 6 C-4 5.34 -4 4.68 -4 4 C-2.68 3.67 -1.36 3.34 0 3 C0 2.01 0 1.02 0 0 Z " fill="#150300" transform="translate(799,743)"/>
<path d="M0 0 C0.78577423 -0.0049649 1.57154846 -0.00992981 2.38113403 -0.01504517 C4.98375321 -0.02966199 7.58631134 -0.03646966 10.18896484 -0.04199219 C12.00157675 -0.04774611 13.81418865 -0.05350382 15.62680054 -0.05926514 C19.43154178 -0.06977519 23.23626191 -0.07561714 27.04101562 -0.07910156 C31.89971368 -0.08457193 36.75812946 -0.10856862 41.61673927 -0.13707352 C45.36413364 -0.15576824 49.11146112 -0.16090923 52.85889816 -0.16243744 C54.64893504 -0.16545147 56.43897109 -0.1734375 58.22896194 -0.18662262 C70.82797022 -0.27276646 80.68819568 -0.15026773 90.32568359 8.96582031 C95.86599929 15.20561475 97.60688416 22.09395105 97.47802734 30.25488281 C96.85250165 39.2047119 92.93193601 45.2398141 86.27490234 51.16113281 C79.86185596 55.3707817 74.02238349 56.31050377 66.4362793 56.33813477 C65.65035904 56.34470596 64.86443878 56.35127716 64.05470276 56.35804749 C61.45752864 56.37773312 58.86041228 56.38943361 56.26318359 56.39941406 C55.37341513 56.40348959 54.48364666 56.40756512 53.56691551 56.41176414 C48.85572926 56.43260648 44.14457196 56.44691514 39.43334961 56.45629883 C34.58244316 56.46734873 29.73199723 56.50173745 24.88125324 56.54147053 C21.13814986 56.56769506 17.39515516 56.57599592 13.651968 56.57958031 C11.86470625 56.58443257 10.07744892 56.59600752 8.29027748 56.6146183 C-4.23920829 56.73696662 -13.47830337 55.91326795 -22.99853516 47.09472656 C-28.70140286 40.70803083 -30.10932343 33.36741075 -29.99853516 25.03613281 C-29.23539508 17.01225996 -24.64264952 10.43443507 -18.72509766 5.16113281 C-12.6415821 1.29183799 -7.16737119 0.01080039 0 0 Z " fill="#30342F" transform="translate(1170.72509765625,20.8388671875)"/>
<path d="M0 0 C71.61 0 143.22 0 217 0 C217 8.25 217 16.5 217 25 C145.39 25 73.78 25 0 25 C0 16.75 0 8.5 0 0 Z " fill="#964E0E" transform="translate(1132,743)"/>
<path d="M0 0 C4.39088763 4.63482583 7.47403188 10.42514137 7.875 16.875 C7.41097629 23.96076748 3.952487 30.2114016 -1.3125 34.875 C-4.64941974 37.52604016 -7.41166821 39.375 -11.75 39.375 C-13.29492557 45.38358412 -14.04221223 50.98068551 -14.05859375 57.17578125 C-14.08138817 58.87362194 -14.10459921 60.57145707 -14.12817383 62.26928711 C-14.13732819 63.15180145 -14.14648254 64.0343158 -14.15591431 64.943573 C-14.52844023 97.30581806 -17.81887878 129.27704391 -21.75 161.375 C-21.87874512 162.45475098 -22.00749023 163.53450195 -22.14013672 164.64697266 C-23.87168806 179.07656717 -26.59109854 193.19306096 -29.75 207.375 C-29.92144531 208.16245605 -30.09289062 208.94991211 -30.26953125 209.76123047 C-40.78128533 257.97215135 -60.36185311 316.07640667 -103.95654297 344.29248047 C-129.02495647 359.42361925 -158.4884724 362.6205771 -186.91748047 356.0625 C-190.37205074 355.17401492 -193.69248835 354.04278106 -197.015625 352.76171875 C-200.95522291 351.29879275 -203.58901161 350.89488595 -207.75 351.375 C-209.11161311 352.33613866 -210.44855198 353.33384159 -211.75 354.375 C-214.4375 354.625 -214.4375 354.625 -216.75 354.375 C-217.75 353.375 -217.75 353.375 -217.8125 350.8125 C-217.791875 350.008125 -217.77125 349.20375 -217.75 348.375 C-216.43 348.045 -215.11 347.715 -213.75 347.375 C-213.75 346.715 -213.75 346.055 -213.75 345.375 C-214.86375 345.58125 -215.9775 345.7875 -217.125 346 C-218.32125 346.12375 -219.5175 346.2475 -220.75 346.375 C-222.75 344.375 -222.75 344.375 -222.9375 341.3125 C-222.75 338.375 -222.75 338.375 -221.75 337.375 C-218.3125 337.125 -218.3125 337.125 -214.75 337.375 C-212.75 340.375 -212.75 340.375 -212.75 343.375 C-212.21375 343.53355469 -211.6775 343.69210937 -211.125 343.85546875 C-210.34125 344.08878906 -209.5575 344.32210938 -208.75 344.5625 C-207.83089844 344.83449219 -206.91179688 345.10648438 -205.96484375 345.38671875 C-203.69618322 346.08413201 -201.43906808 346.81965199 -199.19140625 347.58203125 C-172.47149829 356.59969971 -143.13749143 358.64081095 -117.0546875 346.734375 C-109.32603771 342.8243725 -102.48499373 337.79016787 -95.75 332.375 C-95.02039063 331.80007813 -94.29078125 331.22515625 -93.5390625 330.6328125 C-79.24865577 318.82769389 -69.26708125 301.62547274 -60.75 285.375 C-60.37875 284.66666016 -60.0075 283.95832031 -59.625 283.22851562 C-52.53138239 269.47231619 -47.48834179 255.08557162 -42.75 240.375 C-42.51941895 239.65973145 -42.28883789 238.94446289 -42.05126953 238.20751953 C-39.10708641 228.90290705 -37.08668426 219.3481145 -34.9765625 209.828125 C-34.2399147 206.51493913 -33.47515104 203.21372529 -32.6484375 199.921875 C-30.08526808 189.68484841 -28.48042833 179.44874559 -27.10449219 168.98974609 C-26.77473707 166.55746144 -26.41507048 164.13254024 -26.0390625 161.70703125 C-21.79368605 134.10778447 -19.06001355 106.30116329 -18.75 78.375 C-18.72950558 76.88199627 -18.70882636 75.38899507 -18.68798828 73.89599609 C-18.63612494 69.97014 -18.60037796 66.04441159 -18.57678223 62.11828613 C-18.56734028 60.59393575 -18.55542018 59.06959849 -18.54089355 57.54528809 C-18.52317717 55.42460178 -18.51926011 53.30434481 -18.51953125 51.18359375 C-18.51542236 49.96470459 -18.51131348 48.74581543 -18.50708008 47.48999023 C-18.73968631 44.50725362 -19.09655755 42.83527818 -20.75 40.375 C-22.51694887 39.39959152 -22.51694887 39.39959152 -24.5625 38.875 C-30.39428842 36.91349431 -34.35968817 33.51892139 -37.75 28.375 C-40.33759843 21.57707192 -40.8651753 14.63972754 -38.25 7.8125 C-35.34061174 1.84928577 -30.75917549 -2.12041225 -24.875 -5.0625 C-15.05023103 -6.83095842 -8.47442197 -5.00761298 0 0 Z " fill="#FD9F77" transform="translate(1044.75,194.625)"/>
<path d="M0 0 C0.66 0 1.32 0 2 0 C5.50334519 7.00669038 4.14739319 17.52214485 4.1328125 25.19140625 C4.13424759 26.90673805 4.13424759 26.90673805 4.13571167 28.65672302 C4.13638874 31.07119807 4.13456765 33.48567499 4.13037109 35.90014648 C4.12509088 39.50053271 4.13029347 43.10078986 4.13671875 46.70117188 C4.14057074 58.52666662 3.99752499 70.3345226 3.5546875 82.15234375 C3.49657394 83.7218856 3.49657394 83.7218856 3.43728638 85.32313538 C3.20741612 90.8509691 2.81134029 96.32729003 2.22320557 101.82832336 C1.95066485 104.4800059 1.7958894 107.12605131 1.68359375 109.7890625 C1.64169922 110.74941406 1.59980469 111.70976562 1.55664062 112.69921875 C1.51732422 113.66472656 1.47800781 114.63023437 1.4375 115.625 C1.39431641 116.62917969 1.35113281 117.63335937 1.30664062 118.66796875 C1.20190141 121.11188383 1.09972744 123.55587617 1 126 C2.59714844 125.9690625 2.59714844 125.9690625 4.2265625 125.9375 C12.69375269 126.07774332 17.88547342 129.22865851 24.0546875 134.8671875 C29.96910875 141.35167345 31.2276396 147.89306444 31.16796875 156.4140625 C31.01646043 158.74658587 30.65612519 160.76392535 30 163 C24.70362576 162.42296312 20.13690494 161.20021329 15.1875 159.25 C14.52041016 159.01023437 13.85332031 158.77046875 13.16601562 158.5234375 C9.87051287 157.23317002 8.25091078 156.46800609 6.55078125 153.296875 C6.36902344 152.53890625 6.18726563 151.7809375 6 151 C3.69 151 1.38 151 -1 151 C-1.04254356 152.99954746 -1.04080783 155.00041636 -1 157 C0.18424326 158.41577477 0.18424326 158.41577477 3.5625 158.0625 C5.2640625 158.0315625 5.2640625 158.0315625 7 158 C7 158.66 7 159.32 7 160 C5.68 160.33 4.36 160.66 3 161 C3.33 162.65 3.66 164.3 4 166 C9.01535052 165.67039784 9.01535052 165.67039784 13 163 C18.79028146 162.42097185 22.76245717 163.79471881 28 166 C26.59799333 170.4609303 24.40216594 172.84677303 21 176 C20.319375 176.804375 20.319375 176.804375 19.625 177.625 C14.77085578 181.7323528 9.22146377 182.50260488 3.0625 182.375 C2.35883301 182.36557373 1.65516602 182.35614746 0.93017578 182.34643555 C-7.4647199 182.10216024 -12.89648883 179.96479501 -19 174 C-24.52142348 167.05878191 -26.63818252 159.49539028 -26.34375 150.69921875 C-25.31923516 142.65444878 -20.83506569 136.42968218 -15 131 C-10.60764326 127.63025403 -6.44555452 126.66772871 -1 126 C-1.02320313 125.15566406 -1.04640625 124.31132812 -1.0703125 123.44140625 C-1.16769021 116.53454464 -1.09174088 109.69867276 -0.5546875 102.80859375 C0.94841076 83.31439868 1.19921666 63.88253507 1.18847656 44.34011841 C1.18750499 42.13632974 1.18846937 39.93254819 1.18969727 37.72875977 C1.1906571 34.19811534 1.18491907 30.6675398 1.17376137 27.1369133 C1.16815064 25.19574278 1.16619037 23.25456277 1.16435242 21.31338501 C1.1266242 14.15564006 0.79312053 7.11494334 0 0 Z " fill="#E9EAEA" transform="translate(824,382)"/>
<path d="M0 0 C8.58 0 17.16 0 26 0 C26 22.44 26 44.88 26 68 C17.42 68 8.84 68 0 68 C-4.5 63.5 -4.5 63.5 -4.609375 59.890625 C-4.64160156 59.13652344 -4.67382812 58.38242187 -4.70703125 57.60546875 C-4.72121094 56.82816406 -4.73539063 56.05085938 -4.75 55.25 C-4.77964844 54.45722656 -4.80929687 53.66445313 -4.83984375 52.84765625 C-4.91027787 50.89897906 -4.95743482 48.94948505 -5 47 C-12.21539256 54.60541378 -19.31382808 62.19656997 -25.859375 70.390625 C-28.15120465 73.18431516 -30.55231812 75.84208778 -33 78.5 C-37.11378909 82.9698512 -40.97087297 87.59044893 -44.78515625 92.31640625 C-46.95632827 94.94708557 -49.20241357 97.47942424 -51.5 100 C-55.33702759 104.21476606 -58.95296859 108.56790841 -62.53515625 113 C-65.8655986 117.05353364 -69.2968054 121.01759609 -72.7512207 124.96582031 C-75.25673075 127.85598324 -77.56845685 130.76654767 -79.734375 133.921875 C-80.48203125 134.93765625 -81.2296875 135.9534375 -82 137 C-82.66 137 -83.32 137 -84 137 C-84.24621094 137.55558594 -84.49242187 138.11117187 -84.74609375 138.68359375 C-86.24004406 141.44344588 -88.05058408 143.65316859 -90.0625 146.0625 C-90.866875 147.031875 -91.67125 148.00125 -92.5 149 C-93.325 149.99 -94.15 150.98 -95 152 C-100.72071047 158.95762084 -106.38377604 165.95789535 -112 173 C-114.16590163 175.70894552 -116.33298452 178.41694547 -118.5 181.125 C-119.55210243 182.44008889 -120.60418732 183.75519181 -121.65625 185.0703125 C-122.4296875 186.03710938 -123.203125 187.00390625 -124 188 C-124.66 187.67 -125.32 187.34 -126 187 C-118.6641699 177.59132011 -111.20931904 168.28839446 -103.66601562 159.04541016 C-101.99682363 156.99610029 -100.3334489 154.94220867 -98.671875 152.88671875 C-93.12428555 146.02817864 -87.53100071 139.21931461 -81.80761719 132.5065918 C-79.18548488 129.4245793 -76.62907304 126.30344761 -74.125 123.125 C-70.15354451 118.1054078 -65.94845485 113.3035176 -61.73168945 108.49047852 C-58.0530408 104.27341192 -54.56344634 99.96949713 -51.26953125 95.44140625 C-50.85058594 94.96574219 -50.43164062 94.49007812 -50 94 C-49.34 94 -48.68 94 -48 94 C-47.67708984 93.21496094 -47.67708984 93.21496094 -47.34765625 92.4140625 C-45.46614434 89.04370204 -42.96642619 86.26687937 -40.4375 83.375 C-39.9010083 82.75544434 -39.3645166 82.13588867 -38.81176758 81.49755859 C-34.92537293 77.02273707 -30.97977568 72.60290423 -27 68.2109375 C-21.20540252 61.80519107 -15.60935832 55.2257724 -9.9987793 48.65917969 C-6.10322922 44.10322922 -6.10322922 44.10322922 -5 43 C-4.88918968 40.16413326 -4.83836006 37.34851404 -4.82421875 34.51171875 C-4.80101705 32.75584743 -4.77689957 30.99998802 -4.75195312 29.24414062 C-4.71684047 26.46582119 -4.68750212 23.68793807 -4.67407227 20.90942383 C-4.65860011 18.23464583 -4.61839046 15.56115658 -4.57421875 12.88671875 C-4.57612717 12.05742355 -4.57803558 11.22812836 -4.58000183 10.373703 C-4.56351089 9.59642349 -4.54701996 8.81914398 -4.5300293 8.01831055 C-4.52122993 6.99691231 -4.52122993 6.99691231 -4.51225281 5.95487976 C-4 4 -4 4 0 0 Z " fill="#F7F7F7" transform="translate(1323,334)"/>
<path d="M0 0 C4.29 0 8.58 0 13 0 C13 38.94 13 77.88 13 118 C8.71 118 4.42 118 0 118 C0 79.06 0 40.12 0 0 Z " fill="#C1C1C1" transform="translate(1351,17)"/>
<path d="M0 0 C0.99 0.33 1.98 0.66 3 1 C3.38562671 26.8587428 2.73858541 52.2803767 0 78 C-0.07968018 78.75555176 -0.15936035 79.51110352 -0.24145508 80.28955078 C-1.39563815 91.20538393 -2.6656445 102.1048681 -4 113 C-4.12874512 114.07975098 -4.25749023 115.15950195 -4.39013672 116.27197266 C-6.12168806 130.70156717 -8.84109854 144.81806096 -12 159 C-12.17144531 159.78745605 -12.34289062 160.57491211 -12.51953125 161.38623047 C-23.03128533 209.59715135 -42.61185311 267.70140667 -86.20654297 295.91748047 C-111.27495647 311.04861925 -140.7384724 314.2455771 -169.16748047 307.6875 C-172.62205074 306.79901492 -175.94248835 305.66778106 -179.265625 304.38671875 C-183.20522291 302.92379275 -185.83901161 302.51988595 -190 303 C-191.36161311 303.96113866 -192.69855198 304.95884159 -194 306 C-196.6875 306.25 -196.6875 306.25 -199 306 C-200 305 -200 305 -200.0625 302.4375 C-200.041875 301.633125 -200.02125 300.82875 -200 300 C-198.68 299.67 -197.36 299.34 -196 299 C-196 298.34 -196 297.68 -196 297 C-197.11375 297.20625 -198.2275 297.4125 -199.375 297.625 C-200.57125 297.74875 -201.7675 297.8725 -203 298 C-205 296 -205 296 -205.1875 292.9375 C-205 290 -205 290 -204 289 C-200.5625 288.75 -200.5625 288.75 -197 289 C-195 292 -195 292 -195 295 C-194.46375 295.15855469 -193.9275 295.31710937 -193.375 295.48046875 C-192.59125 295.71378906 -191.8075 295.94710938 -191 296.1875 C-190.08089844 296.45949219 -189.16179688 296.73148438 -188.21484375 297.01171875 C-185.94618322 297.70913201 -183.68906808 298.44465199 -181.44140625 299.20703125 C-154.72149829 308.22469971 -125.38749143 310.26581095 -99.3046875 298.359375 C-91.57603771 294.4493725 -84.73499373 289.41516787 -78 284 C-77.27039063 283.42507813 -76.54078125 282.85015625 -75.7890625 282.2578125 C-61.49865577 270.45269389 -51.51708125 253.25047274 -43 237 C-42.443125 235.93749023 -42.443125 235.93749023 -41.875 234.85351562 C-34.78138239 221.09731619 -29.73834179 206.71057162 -25 192 C-24.76941895 191.28473145 -24.53883789 190.56946289 -24.30126953 189.83251953 C-21.35708641 180.52790705 -19.33668426 170.9731145 -17.2265625 161.453125 C-16.4899147 158.13993913 -15.72515104 154.83872529 -14.8984375 151.546875 C-12.33526808 141.30984841 -10.73042833 131.07374559 -9.35449219 120.61474609 C-9.02473707 118.18246144 -8.66507048 115.75754024 -8.2890625 113.33203125 C-7.451069 107.89753014 -6.71303647 102.45219996 -6 97 C-5.83854492 95.78521973 -5.67708984 94.57043945 -5.51074219 93.31884766 C-1.4649592 62.32904858 -0.77085633 31.20720189 0 0 Z " fill="#16B972" transform="translate(1027,243)"/>
<path d="M0 0 C2.65079721 1.32539861 2.90342592 2.61974614 4.0625 5.3125 C4.40410156 6.09238281 4.74570313 6.87226563 5.09765625 7.67578125 C6 10 6 10 6.49609375 12.23046875 C6.74552734 13.10638672 6.74552734 13.10638672 7 14 C7.66 14.33 8.32 14.66 9 15 C8.67 15.66 8.34 16.32 8 17 C8.66 17 9.32 17 10 17 C11.125 20.75 11.125 20.75 10 23 C10.99 23.33 11.98 23.66 13 24 C13 24.66 13 25.32 13 26 C12.01 26 11.02 26 10 26 C9.67 27.32 9.34 28.64 9 30 C10.98 30.99 12.96 31.98 15 33 C14.875 34.875 14.875 34.875 14 37 C6.08146688 40.76130323 -3.9730919 40.21574031 -12.5625 40.5625 C-13.57119141 40.60568359 -14.57988281 40.64886719 -15.61914062 40.69335938 C-18.07931246 40.79829561 -20.53964158 40.89953358 -23 41 C-23 45.62 -23 50.24 -23 55 C-20.586875 54.566875 -20.586875 54.566875 -18.125 54.125 C-16.76761719 53.88136719 -16.76761719 53.88136719 -15.3828125 53.6328125 C-12.83494012 53.16955297 -12.83494012 53.16955297 -11 51 C-10.83322718 47.41656024 -10.83322718 47.41656024 -11 44 C-8.36 44 -5.72 44 -3 44 C-2.75227942 48.21124988 -2.58617924 51.8802497 -4.0625 55.875 C-7.40928555 59.54566802 -10.84063489 60.85520292 -15.6796875 61.1796875 C-18.12051688 61.18660203 -20.56121936 61.10022386 -23 61 C-23 64.96 -23 68.92 -23 73 C-25.64 73 -28.28 73 -31 73 C-31.02505615 71.97527588 -31.0501123 70.95055176 -31.07592773 69.89477539 C-31.16984484 66.10590324 -31.27010317 62.31722119 -31.37231445 58.52856445 C-31.41572297 56.88635697 -31.45739358 55.24410261 -31.49731445 53.60180664 C-31.5548744 51.24611255 -31.61860892 48.89065572 -31.68359375 46.53515625 C-31.70866249 45.42733543 -31.70866249 45.42733543 -31.73423767 44.2971344 C-31.53548013 40.85699373 -31.53548013 40.85699373 -33 38 C-33.3125 35.625 -33.3125 35.625 -33 33 C-30.88953667 30.81137136 -29.58067992 30.06668095 -26.55078125 29.71875 C-23.84256639 29.22194797 -23.84256639 29.22194797 -22.3046875 26.890625 C-21.83289063 26.01921875 -21.36109375 25.1478125 -20.875 24.25 C-20.15957031 22.95835937 -20.15957031 22.95835937 -19.4296875 21.640625 C-18.46851395 19.8653427 -17.5260153 18.07983418 -16.6015625 16.28515625 C-14.72467806 13.6071626 -13.60179445 13.07151142 -10.5 12.1875 C-9.33984375 11.83751953 -9.33984375 11.83751953 -8.15625 11.48046875 C-6 11 -6 11 -3 11 C-3.061875 10.29875 -3.12375 9.5975 -3.1875 8.875 C-2.95743899 5.34739788 -1.70799432 3.06015649 0 0 Z " fill="#29633A" transform="translate(114,154)"/>
<path d="M0 0 C4.17205781 0.76629633 6.09390269 2.59390269 9.0625 5.5625 C11.96732311 10.241942 11.80399847 15.23252089 11.0625 20.5625 C9.49165234 24.2414369 7.72589956 27.73080022 4.0625 29.5625 C2.00390625 29.80078125 2.00390625 29.80078125 -0.375 29.875 C-1.54869141 29.93107422 -1.54869141 29.93107422 -2.74609375 29.98828125 C-4.9375 29.5625 -4.9375 29.5625 -7.9375 25.5625 C-8.2675 30.1825 -8.5975 34.8025 -8.9375 39.5625 C-11.2475 39.5625 -13.5575 39.5625 -15.9375 39.5625 C-15.9375 27.0225 -15.9375 14.4825 -15.9375 1.5625 C-13.6275 1.5625 -11.3175 1.5625 -8.9375 1.5625 C-8.6075 2.5525 -8.2775 3.5425 -7.9375 4.5625 C-7.23625 3.9025 -6.535 3.2425 -5.8125 2.5625 C-2.9375 0.5625 -2.9375 0.5625 0 0 Z " fill="#090909" transform="translate(538.9375,197.4375)"/>
<path d="M0 0 C3.20035426 0.93101215 5.01359797 1.77001014 7.4375 4 C8.0975 3.319375 8.7575 2.63875 9.4375 1.9375 C12.98471897 -0.35341225 14.45240653 -0.25949699 18.47265625 0.25 C21.23729738 1.30529045 22.55842861 2.72166514 24.4375 5 C24.89160156 7.65722656 24.89160156 7.65722656 24.828125 10.640625 C24.81523438 11.71054688 24.80234375 12.78046875 24.7890625 13.8828125 C24.75554688 14.99398437 24.72203125 16.10515625 24.6875 17.25 C24.66945313 18.37664062 24.65140625 19.50328125 24.6328125 20.6640625 C24.58570222 23.44356896 24.51993361 26.2213534 24.4375 29 C21.7975 29 19.1575 29 16.4375 29 C15.9425 18.605 15.9425 18.605 15.4375 8 C13.4575 8 11.4775 8 9.4375 8 C7.85346476 9.58403524 8.21775065 11.2771638 8.12109375 13.47265625 C8.07919922 14.37177734 8.03730469 15.27089844 7.99414062 16.19726562 C7.95482422 17.14279297 7.91550781 18.08832031 7.875 19.0625 C7.83181641 20.01189453 7.78863281 20.96128906 7.74414062 21.93945312 C7.63770724 24.29281353 7.53568992 26.64628354 7.4375 29 C5.1275 29 2.8175 29 0.4375 29 C0.41244385 28.39937744 0.3873877 27.79875488 0.36157227 27.17993164 C0.2459472 24.47388563 0.12307064 21.76821717 0 19.0625 C-0.03931641 18.11697266 -0.07863281 17.17144531 -0.11914062 16.19726562 C-0.16103516 15.29814453 -0.20292969 14.39902344 -0.24609375 13.47265625 C-0.28275146 12.64000244 -0.31940918 11.80734863 -0.35717773 10.94946289 C-0.35617103 8.99661142 -0.35617103 8.99661142 -1.5625 8 C-4.0625 7.83333333 -4.0625 7.83333333 -6.5625 8 C-8.14653524 9.58403524 -7.78224935 11.2771638 -7.87890625 13.47265625 C-7.92080078 14.37177734 -7.96269531 15.27089844 -8.00585938 16.19726562 C-8.06483398 17.61555664 -8.06483398 17.61555664 -8.125 19.0625 C-8.16818359 20.01189453 -8.21136719 20.96128906 -8.25585938 21.93945312 C-8.36229276 24.29281353 -8.46431008 26.64628354 -8.5625 29 C-11.2025 29 -13.8425 29 -16.5625 29 C-16.5625 19.76 -16.5625 10.52 -16.5625 1 C-14.2525 1 -11.9425 1 -9.5625 1 C-9.2325 2.32 -8.9025 3.64 -8.5625 5 C-7.881875 4.154375 -7.20125 3.30875 -6.5 2.4375 C-3.5625 0 -3.5625 0 0 0 Z " fill="#101010" transform="translate(491.5625,198)"/>
<path d="M0 0 C3.63 0 7.26 0 11 0 C11.24234375 0.82242188 11.4846875 1.64484375 11.734375 2.4921875 C13.31115577 7.74408036 14.89322563 12.93370925 17 18 C23 32.47619048 23 32.47619048 23 38 C20.36 38 17.72 38 15 38 C13.50178941 34.62902617 13 32.79557881 13 29 C8.05 29 3.1 29 -2 29 C-2.33 31.31 -2.66 33.62 -3 36 C-3.33 36.66 -3.66 37.32 -4 38 C-6.64 38 -9.28 38 -12 38 C-11.63297916 33.77926029 -10.83529151 30.34696613 -9.1875 26.4375 C-6.95887156 20.99207768 -5.0793611 15.46515066 -3.25 9.875 C-2.93417969 8.91851562 -2.61835937 7.96203125 -2.29296875 6.9765625 C-1.52585066 4.65196221 -0.76251948 2.32611279 0 0 Z " fill="#232323" transform="translate(94,251)"/>
<path d="M0 0 C3.76140639 2.20378964 6.30858354 3.80382114 7.84765625 8.015625 C8.56428157 12.90108033 9.01886542 17.89595195 6.57421875 22.3203125 C4.51606879 24.73989367 2.69886827 26.59001899 -0.15234375 28.015625 C-1.94093886 28.13770371 -3.73462756 28.19110948 -5.52734375 28.203125 C-6.96207031 28.22439453 -6.96207031 28.22439453 -8.42578125 28.24609375 C-12.61727849 27.89179814 -14.53061935 26.67188964 -17.40234375 23.640625 C-20.32804645 18.92699287 -19.86652567 13.32826396 -19.15234375 8.015625 C-17.35184984 4.06838835 -15.91942285 2.52701107 -12.33984375 0.140625 C-7.87842443 -1.43399358 -4.42841929 -2.02533877 0 0 Z " fill="#0C0C0C" transform="translate(380.15234375,198.984375)"/>
<path d="M0 0 C3.33987809 1.44093354 5.73796817 3.14302281 8 6 C8.91641439 8.53659453 9 10.25446112 9 13 C6.69 13 4.38 13 2 13 C1.71125 12.360625 1.4225 11.72125 1.125 11.0625 C0.17176549 8.84793921 0.17176549 8.84793921 -2 8 C-6.66403007 7.54124294 -8.93033563 7.37602912 -13 9.75 C-16.04988609 14.7060649 -15.81375711 19.33499856 -15 25 C-13.84241028 28.38894779 -13.84241028 28.38894779 -11 30 C-7.90992891 30.55777456 -5.07328583 30.67917919 -2 30 C-0.08130559 28.42658317 0.88983164 27.22033672 2 25 C4.64 25 7.28 25 10 25 C9.1842022 29.4053081 7.3849598 32.78816017 4 35.75 C-0.93271715 38.83294822 -6.38081422 38.55013008 -12 38 C-16.29339026 36.69706987 -19.06804799 34.31755404 -21.375 30.5 C-24.50380196 23.76104192 -25.00334747 17.48220594 -22.9375 10.3125 C-17.53125563 1.06956608 -10.36119831 -1.34527419 0 0 Z " fill="#0B0B0B" transform="translate(429,189)"/>
<path d="M0 0 C0.72960937 0.04189453 1.45921875 0.08378906 2.2109375 0.12695312 C2.95601562 0.14951172 3.70109375 0.17207031 4.46875 0.1953125 C6.3003465 0.25401752 8.13090403 0.34369556 9.9609375 0.43945312 C10.01657237 2.3557652 10.05443979 4.27259238 10.0859375 6.18945312 C10.10914063 7.25679687 10.13234375 8.32414063 10.15625 9.42382812 C9.89447476 14.8059271 8.84679509 20.12430759 7.9609375 25.43945312 C-1.9390625 25.43945312 -11.8390625 25.43945312 -22.0390625 25.43945312 C-20.76736346 20.35265695 -18.80420289 17.03345077 -15.0390625 13.43945312 C-14.7090625 12.77945313 -14.3790625 12.11945312 -14.0390625 11.43945312 C-13.3790625 11.43945312 -12.7190625 11.43945312 -12.0390625 11.43945312 C-11.6678125 10.10914063 -11.6678125 10.10914063 -11.2890625 8.75195312 C-8.94515563 2.54059992 -6.98517439 -0.15875396 0 0 Z " fill="#632500" transform="translate(78.0390625,742.560546875)"/>
<path d="M0 0 C3.61110021 1.45832893 6.5894997 2.90765374 9 6 C9.34057617 8.4519043 9.34057617 8.4519043 9.29296875 11.32421875 C9.28330078 12.35224609 9.27363281 13.38027344 9.26367188 14.43945312 C9.23853516 15.51130859 9.21339844 16.58316406 9.1875 17.6875 C9.16719727 19.31268555 9.16719727 19.31268555 9.14648438 20.97070312 C9.11110643 23.64763405 9.06174189 26.32356838 9 29 C6.69 29 4.38 29 2 29 C1.67 28.01 1.34 27.02 1 26 C0.525625 26.495 0.05125 26.99 -0.4375 27.5 C-4.22980502 29.71988587 -7.70858655 29.68505132 -12 29 C-14.5625 27.5 -14.5625 27.5 -16 25 C-16.59962386 22.18638035 -16.63595571 19.80976793 -16 17 C-12.52171044 12.44224127 -7.59881657 12.11950161 -2.23046875 11.296875 C-1.12638672 11.14992187 -1.12638672 11.14992187 0 11 C0 9.68 0 8.36 0 7 C-2.91652174 6.83318891 -2.91652174 6.83318891 -6 7 C-6.66 7.66 -7.32 8.32 -8 9 C-11.625 9.125 -11.625 9.125 -15 9 C-14.66032174 5.82966958 -14.00130809 5.00117393 -11.5625 2.8125 C-7.43845115 -0.10451016 -5.09071595 -0.33938106 0 0 Z " fill="#272727" transform="translate(460,198)"/>
<path d="M0 0 C3.61110021 1.45832893 6.5894997 2.90765374 9 6 C9.34057617 8.4519043 9.34057617 8.4519043 9.29296875 11.32421875 C9.28330078 12.35224609 9.27363281 13.38027344 9.26367188 14.43945312 C9.23853516 15.51130859 9.21339844 16.58316406 9.1875 17.6875 C9.16719727 19.31268555 9.16719727 19.31268555 9.14648438 20.97070312 C9.11110643 23.64763405 9.06174189 26.32356838 9 29 C6.69 29 4.38 29 2 29 C1.67 28.01 1.34 27.02 1 26 C0.60683594 26.48597656 0.21367187 26.97195313 -0.19140625 27.47265625 C-3.11577871 29.94226669 -5.92711048 29.47437553 -9.61328125 29.33984375 C-12 29 -12 29 -14.625 27.5 C-16.58321387 23.93961115 -16.89768925 20.96615432 -16 17 C-12.52171044 12.44224127 -7.59881657 12.11950161 -2.23046875 11.296875 C-1.12638672 11.14992188 -1.12638672 11.14992188 0 11 C0 9.68 0 8.36 0 7 C-2.91652174 6.83318891 -2.91652174 6.83318891 -6 7 C-6.66 7.66 -7.32 8.32 -8 9 C-11.625 9.125 -11.625 9.125 -15 9 C-14.66032174 5.82966958 -14.00130809 5.00117393 -11.5625 2.8125 C-7.43845115 -0.10451016 -5.09071595 -0.33938106 0 0 Z " fill="#272727" transform="translate(188,260)"/>
<path d="M0 0 C4.28712087 2.26965223 7.52115655 4.80503416 10 9 C10 11.64 10 14.28 10 17 C3.73 17 -2.54 17 -9 17 C-7.54711014 21.5841963 -7.54711014 21.5841963 -6 23 C-3.04182893 23.25005386 -3.04182893 23.25005386 0 23 C0.66 22.34 1.32 21.68 2 21 C5.625 20.875 5.625 20.875 9 21 C8.4376049 24.26189156 7.5859495 25.91134848 5 28 C0.03876211 29.65374596 -6.15766119 30.39878879 -10.984375 28.0234375 C-14.644512 25.06996062 -16.6725413 22.05606282 -17.40625 17.44921875 C-17.57734423 12.40906802 -17.56668527 8.9242227 -14.25 4.9375 C-9.98048858 0.52782785 -6.13094055 -0.63423523 0 0 Z " fill="#272727" transform="translate(158,260)"/>
<path d="M0 0 C19.14 0 38.28 0 58 0 C58 9 58 9 57 13 C56.7215625 14.1446875 56.7215625 14.1446875 56.4375 15.3125 C56.293125 15.869375 56.14875 16.42625 56 17 C51.05292517 16.55829689 47.044498 15.7680111 42.40625 13.890625 C38.14287129 12.31262119 33.74537243 11.17883935 29.3671875 9.96484375 C26.20899043 9.05988473 23.11591146 8.03989764 20 7 C16.54738247 5.93917805 13.08633196 4.90698057 9.625 3.875 C8.69816406 3.59785156 7.77132813 3.32070313 6.81640625 3.03515625 C4.54451984 2.35593248 2.27237984 1.67757076 0 1 C0 0.67 0 0.34 0 0 Z " fill="#927869" transform="translate(1267,743)"/>
<path d="M0 0 C2.31 0 4.62 0 7 0 C7 6.6 7 13.2 7 20 C9.52221037 17.47778963 12.04711454 14.94269854 14.3125 12.1875 C18.07450528 9.12540268 20.25580313 9.59794942 25 10 C24.04367001 11.29315061 23.08486149 12.58446853 22.125 13.875 C21.59132812 14.59429687 21.05765625 15.31359375 20.5078125 16.0546875 C19 18 19 18 17 20 C17.24823059 24.58025468 19.49076569 27.56702248 22.0625 31.25 C26 36.92442882 26 36.92442882 26 38 C22.80656435 38.65172156 20.16729168 38.85196137 17 38 C14.08711192 34.99212644 12.02701356 31.64992796 10 28 C9.34 28.33 8.68 28.66 8 29 C7.53348793 31.12576782 7.53348793 31.12576782 7.375 33.5625 C7.26285156 34.80193359 7.26285156 34.80193359 7.1484375 36.06640625 C7.09945312 36.70449219 7.05046875 37.34257812 7 38 C4.69 38 2.38 38 0 38 C0 25.46 0 12.92 0 0 Z " fill="#050505" transform="translate(202,189)"/>
<path d="M0 0 C2.64 0 5.28 0 8 0 C8.01981934 0.56509277 8.03963867 1.13018555 8.06005859 1.71240234 C8.15518236 4.26707997 8.26491058 6.82092541 8.375 9.375 C8.4059375 10.26445312 8.436875 11.15390625 8.46875 12.0703125 C8.50742187 12.92109375 8.54609375 13.771875 8.5859375 14.6484375 C8.6173584 15.43395996 8.6487793 16.21948242 8.68115234 17.02880859 C8.8399465 19.23002939 8.8399465 19.23002939 11 21 C12.98 20.67 14.96 20.34 17 20 C17.33 13.4 17.66 6.8 18 0 C20.64 0 23.28 0 26 0 C26 9.24 26 18.48 26 28 C23.69 28 21.38 28 19 28 C18.67 26.68 18.34 25.36 18 24 C17.319375 24.66 16.63875 25.32 15.9375 26 C12.23727467 28.51930235 10.3968344 28.7066341 6 28 C3.36983839 25.8272578 1.52663106 24.05326212 0 21 C-0.08400529 19.40552536 -0.10727467 17.80759455 -0.09765625 16.2109375 C-0.09443359 15.26992187 -0.09121094 14.32890625 -0.08789062 13.359375 C-0.07951172 12.37453125 -0.07113281 11.3896875 -0.0625 10.375 C-0.05798828 9.38242188 -0.05347656 8.38984375 -0.04882812 7.3671875 C-0.03702145 4.9113984 -0.020554 2.45572896 0 0 Z " fill="#101010" transform="translate(297,199)"/>
<path d="M0 0 C2.64 0 5.28 0 8 0 C8.02505615 0.56509277 8.0501123 1.13018555 8.07592773 1.71240234 C8.19179956 4.26683742 8.31456537 6.8208955 8.4375 9.375 C8.47681641 10.26445312 8.51613281 11.15390625 8.55664062 12.0703125 C8.61948242 13.34648437 8.61948242 13.34648437 8.68359375 14.6484375 C8.72025146 15.43395996 8.75690918 16.21948242 8.79467773 17.02880859 C8.890891 19.07523496 8.890891 19.07523496 10 21 C12.41645782 21.16687448 12.41645782 21.16687448 15 21 C17.3968665 18.6031335 17.28281133 17.92971686 17.4140625 14.6484375 C17.45273438 13.79765625 17.49140625 12.946875 17.53125 12.0703125 C17.5621875 11.18085938 17.593125 10.29140625 17.625 9.375 C17.66367188 8.4778125 17.70234375 7.580625 17.7421875 6.65625 C17.83659357 4.4377073 17.92216748 2.21917597 18 0 C20.64 0 23.28 0 26 0 C26 9.24 26 18.48 26 28 C23.69 28 21.38 28 19 28 C19 26.35 19 24.7 19 23 C18.34 23 17.68 23 17 23 C16.71125 23.639375 16.4225 24.27875 16.125 24.9375 C15 27 15 27 13 28 C9.6875 28.375 9.6875 28.375 6 28 C3.36983839 25.8272578 1.52663106 24.05326212 0 21 C-0.08400529 19.40552536 -0.10727467 17.80759455 -0.09765625 16.2109375 C-0.09443359 15.26992187 -0.09121094 14.32890625 -0.08789062 13.359375 C-0.07951172 12.37453125 -0.07113281 11.3896875 -0.0625 10.375 C-0.05798828 9.38242188 -0.05347656 8.38984375 -0.04882812 7.3671875 C-0.03702145 4.9113984 -0.020554 2.45572896 0 0 Z " fill="#101010" transform="translate(117,199)"/>
<path d="M0 0 C3.80176483 1.62836653 6.22184708 3.78202151 8.4375 7.25 C9.24113539 11.17888414 9.15665288 15.00535159 9 19 C5.89287788 18.21362959 2.90755893 17.36075884 0 16 C-1.5625 13.3125 -1.5625 13.3125 -2 11 C-4.31 11 -6.62 11 -9 11 C-9.04254356 12.99954746 -9.04080783 15.00041636 -9 17 C-7.81575674 18.41577477 -7.81575674 18.41577477 -4.4375 18.0625 C-2.7359375 18.0315625 -2.7359375 18.0315625 -1 18 C-1 18.66 -1 19.32 -1 20 C-2.32 20.33 -3.64 20.66 -5 21 C-4.42547254 24.93075644 -4.42547254 24.93075644 -2 28 C-10.85942492 28.45047923 -10.85942492 28.45047923 -15 25 C-19.15683091 20.50612875 -19.66978126 16.53275866 -19.4609375 10.62890625 C-18.73093202 6.46540039 -17.10703871 4.81801186 -14 2 C-9.51925315 -0.98716456 -5.2506911 -0.71766768 0 0 Z " fill="#C0C1C1" transform="translate(832,522)"/>
<path d="M0 0 C10.23 0 20.46 0 31 0 C31 2.31 31 4.62 31 7 C27.04 7 23.08 7 19 7 C19 17.23 19 27.46 19 38 C16.36 38 13.72 38 11 38 C11 27.77 11 17.54 11 7 C7.37 7 3.74 7 0 7 C0 4.69 0 2.38 0 0 Z " fill="#151515" transform="translate(243,189)"/>
<path d="M0 0 C2.31 0 4.62 0 7 0 C7.01981934 0.56509277 7.03963867 1.13018555 7.06005859 1.71240234 C7.15518236 4.26707997 7.26491058 6.82092541 7.375 9.375 C7.4059375 10.26445312 7.436875 11.15390625 7.46875 12.0703125 C7.50742188 12.92109375 7.54609375 13.771875 7.5859375 14.6484375 C7.6173584 15.43395996 7.6487793 16.21948242 7.68115234 17.02880859 C7.8399465 19.23002939 7.8399465 19.23002939 10 21 C13.06991681 20.83557723 13.06991681 20.83557723 16 20 C17.11823815 17.76352369 17.19396061 16.35108471 17.31640625 13.8671875 C17.35830078 13.06152344 17.40019531 12.25585938 17.44335938 11.42578125 C17.48267578 10.58402344 17.52199219 9.74226562 17.5625 8.875 C17.60568359 8.02550781 17.64886719 7.17601562 17.69335938 6.30078125 C17.79954236 4.20071777 17.90028497 2.10038052 18 0 C20.31 0 22.62 0 25 0 C25 9.24 25 18.48 25 28 C22.69 28 20.38 28 18 28 C17.67 26.68 17.34 25.36 17 24 C16.505 24.66 16.01 25.32 15.5 26 C12.65483423 28.27613262 10.69948564 28.50717444 7.09765625 28.62890625 C3.47339463 27.54230267 2.19065831 26.09713761 0 23 C-0.6114053 19.04448986 -0.47093838 15.17770962 -0.3125 11.1875 C-0.28994141 10.11306641 -0.26738281 9.03863281 -0.24414062 7.93164062 C-0.18535598 5.2863315 -0.10323957 2.64388587 0 0 Z " fill="#030303" transform="translate(170,199)"/>
<path d="M0 0 C2.31 0 4.62 0 7 0 C7.33 0.99 7.66 1.98 8 3 C8.40476562 2.51402344 8.80953125 2.02804688 9.2265625 1.52734375 C11.41978401 -0.36153204 12.5145203 -0.43261864 15.375 -0.4375 C16.12523437 -0.45683594 16.87546875 -0.47617188 17.6484375 -0.49609375 C21.29374981 0.27293393 22.61031624 1.06625514 25 4 C25.62680569 8.09634583 25.46827028 12.11849288 25.3125 16.25 C25.28994141 17.37664062 25.26738281 18.50328125 25.24414062 19.6640625 C25.18524254 22.44405232 25.10304201 25.22135332 25 28 C22.69 28 20.38 28 18 28 C17.97494385 27.39937744 17.9498877 26.79875488 17.92407227 26.17993164 C17.8084472 23.47388563 17.68557064 20.76821717 17.5625 18.0625 C17.52318359 17.11697266 17.48386719 16.17144531 17.44335938 15.19726562 C17.40146484 14.29814453 17.35957031 13.39902344 17.31640625 12.47265625 C17.27974854 11.64000244 17.24309082 10.80734863 17.20532227 9.94946289 C17.20632897 7.99661142 17.20632897 7.99661142 16 7 C13.66702567 6.95907063 11.33294775 6.95758277 9 7 C7.85345518 9.29308963 7.80270883 10.79909656 7.68359375 13.3515625 C7.64169922 14.20234375 7.59980469 15.053125 7.55664062 15.9296875 C7.51732422 16.81914062 7.47800781 17.70859375 7.4375 18.625 C7.37272461 19.97078125 7.37272461 19.97078125 7.30664062 21.34375 C7.20043139 23.56234283 7.09838806 25.7810488 7 28 C4.69 28 2.38 28 0 28 C0 18.76 0 9.52 0 0 Z " fill="#040404" transform="translate(330,199)"/>
<path d="M0 0 C4.95 0 9.9 0 15 0 C15 8.25 15 16.5 15 25 C8.73 25 2.46 25 -4 25 C-3.67 19.72 -3.34 14.44 -3 9 C-2.34 9 -1.68 9 -1 9 C-0.67 6.03 -0.34 3.06 0 0 Z " fill="#BE5C10" transform="translate(1334,743)"/>
<path d="M0 0 C1.175625 0.0825 2.35125 0.165 3.5625 0.25 C5.5625 3.25 5.5625 3.25 5.5625 6.25 C6.09875 6.40855469 6.635 6.56710937 7.1875 6.73046875 C7.97125 6.96378906 8.755 7.19710937 9.5625 7.4375 C10.48160156 7.70949219 11.40070312 7.98148438 12.34765625 8.26171875 C14.61631678 8.95913201 16.87343192 9.69465199 19.12109375 10.45703125 C34.15767129 15.53170708 48.68984267 17.49833054 64.5625 17.625 C66.24436401 17.64590698 66.24436401 17.64590698 67.96020508 17.66723633 C74.43635391 17.63022976 80.04786297 16.87433936 86.22265625 14.89306641 C88.5625 14.25 88.5625 14.25 92.5625 14.25 C92.2325 15.24 91.9025 16.23 91.5625 17.25 C81.66236723 21.28123277 71.39469875 21.9124768 60.8125 21.75 C60.12027344 21.74545807 59.42804687 21.74091614 58.71484375 21.73623657 C45.76143695 21.63690177 33.46357164 20.32695518 21.296875 15.63671875 C17.35727709 14.17379275 14.72348839 13.76988595 10.5625 14.25 C9.20088689 15.21113866 7.86394802 16.20884159 6.5625 17.25 C3.875 17.5 3.875 17.5 1.5625 17.25 C0.5625 16.25 0.5625 16.25 0.5 13.6875 C0.520625 12.883125 0.54125 12.07875 0.5625 11.25 C1.8825 10.92 3.2025 10.59 4.5625 10.25 C4.5625 9.59 4.5625 8.93 4.5625 8.25 C3.44875 8.45625 2.335 8.6625 1.1875 8.875 C-0.00875 8.99875 -1.205 9.1225 -2.4375 9.25 C-4.4375 7.25 -4.4375 7.25 -4.625 4.1875 C-4.35637999 -0.02088008 -4.30150996 0.31283709 0 0 Z " fill="#15B26D" transform="translate(826.4375,531.75)"/>
<path d="M0 0 C2.2416581 2.2416581 3.14256474 4.05180277 4.0625 7.0625 C3.4025 7.7225 2.7425 8.3825 2.0625 9.0625 C1.52625 8.155 0.99 7.2475 0.4375 6.3125 C-2.39624821 2.04675091 -6.10027081 -0.32509027 -10.9375 -1.9375 C-18.07571733 -2.53235144 -24.1716127 -1.85234506 -30.1875 2.3125 C-34.42817197 6.55317197 -36.09217952 9.98002352 -36.375 15.9375 C-36.11421109 22.88491665 -33.70592896 27.82472747 -28.625 32.5625 C-22.71980211 36.59531807 -15.75157883 36.16466794 -8.9375 35.0625 C-3.45192096 32.79260522 0.01630802 28.74108534 2.38671875 23.36328125 C3.66370844 19.01561114 3.89671862 14.57175362 4.0625 10.0625 C7.05923728 14.55760592 6.76142059 18.79537681 6.0625 24.0625 C3.53101929 30.52701081 -1.26169126 34.85701476 -7.125 38.375 C-8.9375 39.0625 -8.9375 39.0625 -11.9375 39.0625 C-12.5975 42.0325 -13.2575 45.0025 -13.9375 48.0625 C-15.2575 48.0625 -16.5775 48.0625 -17.9375 48.0625 C-18.2675 46.804375 -18.5975 45.54625 -18.9375 44.25 C-19.88155494 41.69206065 -20.36395948 40.39892745 -22.7421875 39.00390625 C-24.13399785 38.53909411 -25.53576921 38.10320232 -26.9453125 37.6953125 C-31.77706097 36.16052181 -35.223138 32.18084234 -37.9375 28.0625 C-40.52509843 21.26457192 -41.0526753 14.32722754 -38.4375 7.5 C-35.52811174 1.53678577 -30.94667549 -2.43291225 -25.0625 -5.375 C-15.22230353 -7.14623537 -8.30109759 -5.47519203 0 0 Z " fill="#FE824C" transform="translate(1044.9375,194.9375)"/>
<path d="M0 0 C0.23074219 0.75023437 0.46148437 1.50046875 0.69921875 2.2734375 C2.68571704 8.50774437 4.948944 14.27243191 8.046875 20.0390625 C9 22 9 22 9 24 C6.36 24 3.72 24 1 24 C0.01 20.04 -0.98 16.08 -2 12 C-2.4125 13.753125 -2.825 15.50625 -3.25 17.3125 C-4.46433204 22.47341115 -4.46433204 22.47341115 -6.84375 24.8125 C-10.2144999 26.66885502 -13.18782243 26.68231854 -17 27 C-18.55439196 24.03825315 -19.63008178 21.33939876 -20 18 C-18.88032821 15.35230554 -17.45805716 13.40114285 -15.68359375 11.14453125 C-14.12890518 9.16419708 -13.08816375 7.31822143 -12 5.0625 C-10 2 -10 2 -7 0.5625 C-4 0 -4 0 0 0 Z " fill="#DF6C2D" transform="translate(109,166)"/>
<path d="M0 0 C2.31 0.33 4.62 0.66 7 1 C7 5.29 7 9.58 7 14 C9.413125 13.566875 9.413125 13.566875 11.875 13.125 C13.23238281 12.88136719 13.23238281 12.88136719 14.6171875 12.6328125 C17.16505988 12.16955297 17.16505988 12.16955297 19 10 C19.16677282 6.41656024 19.16677282 6.41656024 19 3 C21.64 3 24.28 3 27 3 C27.24772058 7.21124988 27.41382076 10.8802497 25.9375 14.875 C22.59071445 18.54566802 19.15936511 19.85520292 14.3203125 20.1796875 C11.87948312 20.18660203 9.43878064 20.10022386 7 20 C7 23.96 7 27.92 7 32 C4.69 32 2.38 32 0 32 C0 21.44 0 10.88 0 0 Z " fill="#040403" transform="translate(84,195)"/>
<path d="M0 0 C2.6258382 1.78870171 3.34201385 3.11189509 5 6 C5.55263322 9.93751167 5.36220775 12.18503256 3.75 15.8125 C1.81803152 18.2274606 0.95224902 19.12230435 -2 20 C-7.14649682 20.57183298 -7.14649682 20.57183298 -10 20 C-13.883836 16.85987727 -15.8023937 14.71258797 -16.375 9.75 C-15.88072704 4.80727042 -14.46171699 3.46171699 -11 0 C-7.46077805 -1.76961098 -3.72473277 -1.03393444 0 0 Z " fill="#0E1D35" transform="translate(1341,344)"/>
<path d="M0 0 C2.64 0 5.28 0 8 0 C8 2.31 8 4.62 8 7 C9.65 7 11.3 7 13 7 C13 8.98 13 10.96 13 13 C11.35 13 9.7 13 8 13 C8 18.28 8 23.56 8 29 C9.65 29 11.3 29 13 29 C13 30.98 13 32.96 13 35 C11.58603027 35.13595863 10.16823316 35.23243845 8.75 35.3125 C7.96109375 35.37050781 7.1721875 35.42851562 6.359375 35.48828125 C4 35 4 35 1.71875 33.03125 C-0.59619278 28.94853273 -0.45044764 25.78623147 -0.25 21.1875 C-0.23195312 20.39923828 -0.21390625 19.61097656 -0.1953125 18.79882812 C-0.14844048 16.86535739 -0.0767041 14.93251715 0 13 C-1.32 13 -2.64 13 -4 13 C-4 11.02 -4 9.04 -4 7 C-2.68 7 -1.36 7 0 7 C0 4.69 0 2.38 0 0 Z " fill="#121212" transform="translate(151,192)"/>
<path d="M0 0 C2.64 0 5.28 0 8 0 C8.33 0.99 8.66 1.98 9 3 C9.391875 2.505 9.78375 2.01 10.1875 1.5 C12.55091715 -0.45593143 14.01435003 -0.24207973 17 0 C17 2.31 17 4.62 17 7 C14.03 7.66 11.06 8.32 8 9 C8 15.6 8 22.2 8 29 C5.36 29 2.72 29 0 29 C0 19.43 0 9.86 0 0 Z " fill="#191919" transform="translate(276,198)"/>
<path d="M0 0 C0.33 0 0.66 0 1 0 C1.66 4.95 2.32 9.9 3 15 C9.27 14.67 15.54 14.34 22 14 C20 17 20 17 17.515625 17.6953125 C8.83494666 18.83750702 0.21487495 19.36940578 -8.53417969 19.65869141 C-9.89784668 19.70582275 -9.89784668 19.70582275 -11.2890625 19.75390625 C-12.50650146 19.78979858 -12.50650146 19.78979858 -13.74853516 19.82641602 C-16.00009366 19.92844099 -16.00009366 19.92844099 -18.10693359 20.57788086 C-20 21 -20 21 -23 20 C-23 30.56 -23 41.12 -23 52 C-23.33 52 -23.66 52 -24 52 C-24.02505615 50.97527588 -24.0501123 49.95055176 -24.07592773 48.89477539 C-24.16984484 45.10590324 -24.27010317 41.31722119 -24.37231445 37.52856445 C-24.41572297 35.88635697 -24.45739358 34.24410261 -24.49731445 32.60180664 C-24.5548744 30.24611255 -24.61860892 27.89065572 -24.68359375 25.53515625 C-24.70030624 24.79660904 -24.71701874 24.05806183 -24.73423767 23.2971344 C-24.53548013 19.85699373 -24.53548013 19.85699373 -26 17 C-26.3125 14.625 -26.3125 14.625 -26 12 C-24.25 10.1875 -24.25 10.1875 -22 9 C-20.68 9 -19.36 9 -18 9 C-15.43228397 12.30134918 -15 13.72874492 -15 18 C-13.5410574 17.52269162 -12.08286504 17.04308958 -10.625 16.5625 C-9.81289062 16.29566406 -9.00078125 16.02882812 -8.1640625 15.75390625 C-5.98968201 15.04820271 -5.98968201 15.04820271 -4 14 C-3.20180463 11.64328449 -2.50852775 9.33786625 -1.875 6.9375 C-1.69324219 6.27427734 -1.51148437 5.61105469 -1.32421875 4.92773438 C-0.87569596 3.28708521 -0.43692614 1.64377551 0 0 Z " fill="#6B5F1D" transform="translate(107,175)"/>
<path d="M0 0 C2.64 0 5.28 0 8 0 C8.33 0.99 8.66 1.98 9 3 C9.66 2.34 10.32 1.68 11 1 C14.125 0.875 14.125 0.875 17 1 C17 2.98 17 4.96 17 7 C15.865625 7.309375 14.73125 7.61875 13.5625 7.9375 C10.21224901 8.62924531 10.21224901 8.62924531 9 10 C8.84379445 11.41327947 8.74943827 12.8335459 8.68359375 14.25390625 C8.64169922 15.10791016 8.59980469 15.96191406 8.55664062 16.84179688 C8.51732422 17.73962891 8.47800781 18.63746094 8.4375 19.5625 C8.39431641 20.46419922 8.35113281 21.36589844 8.30664062 22.29492188 C8.20021858 24.52978485 8.09820012 26.76476308 8 29 C5.36 29 2.72 29 0 29 C0 19.43 0 9.86 0 0 Z " fill="#171717" transform="translate(122,260)"/>
<path d="M0 0 C4.6552625 0.81671272 6.52627604 1.9963421 9.5625 5.625 C10.42373442 8.82139351 10.42928794 11.4294418 9.5625 14.625 C7.78148526 17.24805913 6.44192274 17.97199806 3.5625 19.625 C-0.32728623 20.16957007 -3.22196554 19.95349047 -6.4375 17.625 C-8.93285546 14.6133641 -9.4375 13.0676352 -9.4375 9.125 C-7.87685171 3.662731 -5.67690262 1.03216411 0 0 Z " fill="#2BBE7C" transform="translate(316.4375,539.375)"/>
<path d="M0 0 C2.63049736 2.3799738 4.47108462 4.7892777 6 8 C5.71395102 9.67542976 5.38218767 11.34385343 5 13 C5.84077872 15.26857146 5.84077872 15.26857146 7 17 C2.11379486 21.1623229 -2.71103868 21.43372147 -9 21 C-11.46458524 20.17366733 -13.65618773 19.14798968 -16 18 C-15.75 16.125 -15.75 16.125 -15 14 C-14.38769531 13.69964844 -13.77539062 13.39929688 -13.14453125 13.08984375 C-10.71305289 11.85417442 -9.60781929 10.5710545 -7.9375 8.4375 C-5.87467786 5.80562347 -5.28702382 5.09567461 -2 4 C-0.79117904 1.99983534 -0.79117904 1.99983534 0 0 Z " fill="#567A36" transform="translate(1033,203)"/>
<path d="M0 0 C-1.95649397 0.83764268 -3.91525556 1.66999059 -5.875 2.5 C-7.51082031 3.19609375 -7.51082031 3.19609375 -9.1796875 3.90625 C-12 5 -12 5 -14 5 C-14 7.31 -14 9.62 -14 12 C-14.33 12 -14.66 12 -15 12 C-15 9.69 -15 7.38 -15 5 C-17.31 5.33 -19.62 5.66 -22 6 C-21.938125 6.928125 -21.87625 7.85625 -21.8125 8.8125 C-22 12 -22 12 -23.3125 13.8125 C-27.28353914 16.60693495 -29.86055833 16 -35 16 C-35 11.38 -35 6.76 -35 2 C-35.99 1.67 -36.98 1.34 -38 1 C-36.93471069 0.96241577 -36.93471069 0.96241577 -35.84790039 0.92407227 C-32.58596536 0.80701528 -29.32424278 0.68479254 -26.0625 0.5625 C-24.38704102 0.50352539 -24.38704102 0.50352539 -22.67773438 0.44335938 C-17.73177667 0.2548038 -12.84519615 0.02950675 -7.93359375 -0.59765625 C-4.59034844 -0.93961679 -3.05862157 -0.91567084 0 0 Z " fill="#78A54D" transform="translate(126,193)"/>
<path d="M0 0 C0.99 0.495 0.99 0.495 2 1 C-24.92247847 51.97415949 -24.92247847 51.97415949 -43 58 C-61.03645144 59.72178957 -76.62761963 49.85534654 -91 40 C-91 42.31 -91 44.62 -91 47 C-91.33 47 -91.66 47 -92 47 C-91.67 40.73 -91.34 34.46 -91 28 C-90.67 28 -90.34 28 -90 28 C-90.07863281 28.6290625 -90.15726563 29.258125 -90.23828125 29.90625 C-90.32646798 32.98814411 -90.09475122 35.10139735 -89 38 C-85.10470111 41.47002101 -80.62919945 43.68360833 -76 46 C-74.75530763 46.65788564 -73.51180674 47.31803065 -72.26953125 47.98046875 C-62.1234666 53.28753786 -52.07555515 57.37557635 -40.5078125 54.34765625 C-26.2699784 48.60818334 -19.22035154 34.89478171 -12.4375 22 C-8.48401718 14.53809711 -4.42558668 7.19394086 0 0 Z " fill="#DEE4E1" transform="translate(1116,301)"/>
<path d="M0 0 C1.16015625 0.01289063 2.3203125 0.02578125 3.515625 0.0390625 C4.7221875 0.07257813 5.92875 0.10609375 7.171875 0.140625 C9.00492188 0.16769531 9.00492188 0.16769531 10.875 0.1953125 C13.89141578 0.242444 16.90624991 0.30823087 19.921875 0.390625 C19.921875 1.050625 19.921875 1.710625 19.921875 2.390625 C19.13949463 2.41568115 18.35711426 2.4407373 17.55102539 2.46655273 C14.02862551 2.58212288 10.5065194 2.70502449 6.984375 2.828125 C5.75267578 2.86744141 4.52097656 2.90675781 3.25195312 2.94726562 C1.4972168 3.01010742 1.4972168 3.01010742 -0.29296875 3.07421875 C-1.91900024 3.12920532 -1.91900024 3.12920532 -3.57788086 3.18530273 C-6.017388 3.11426765 -6.017388 3.11426765 -7.078125 4.390625 C-7.1772306 6.25698288 -7.20611761 8.12710694 -7.20751953 9.99609375 C-7.21067169 11.19403564 -7.21382385 12.39197754 -7.21707153 13.6262207 C-7.2150473 14.93034912 -7.21302307 16.23447754 -7.2109375 17.578125 C-7.2116106 18.91951515 -7.21258068 20.26090519 -7.21383667 21.60229492 C-7.21531336 24.41684121 -7.21316004 27.23135582 -7.20849609 30.04589844 C-7.20279881 33.66103131 -7.20607797 37.27608995 -7.21206856 40.89122009 C-7.21567497 43.66207442 -7.21453522 46.43291102 -7.21194077 49.20376587 C-7.21094533 51.18752083 -7.21399241 53.17127647 -7.21707153 55.1550293 C-7.21234329 56.95194214 -7.21234329 56.95194214 -7.20751953 58.78515625 C-7.20672394 59.84581299 -7.20592834 60.90646973 -7.20510864 61.99926758 C-7.34784779 64.34377443 -7.34784779 64.34377443 -6.078125 65.390625 C-4.15333687 65.54869031 -2.2231329 65.64176 -0.29296875 65.70703125 C0.87685547 65.74892578 2.04667969 65.79082031 3.25195312 65.83398438 C4.48365234 65.87330078 5.71535156 65.91261719 6.984375 65.953125 C8.21994141 65.99630859 9.45550781 66.03949219 10.72851562 66.08398438 C13.79284835 66.19046698 16.85726573 66.29247924 19.921875 66.390625 C19.921875 67.050625 19.921875 67.710625 19.921875 68.390625 C15.67210454 68.50673895 11.42274163 68.57784849 7.171875 68.640625 C5.9653125 68.67414063 4.75875 68.70765625 3.515625 68.7421875 C1.77539062 68.76152344 1.77539062 68.76152344 0 68.78125 C-1.06831055 68.80219727 -2.13662109 68.82314453 -3.23730469 68.84472656 C-6.86186907 68.26534449 -7.81837798 67.24183695 -10.078125 64.390625 C-10.58605957 61.65869141 -10.58605957 61.65869141 -10.59570312 58.4921875 C-10.60831177 57.30415527 -10.62092041 56.11612305 -10.63391113 54.89208984 C-10.62176575 52.97323975 -10.62176575 52.97323975 -10.609375 51.015625 C-10.6132019 49.69900879 -10.61702881 48.38239258 -10.62097168 47.02587891 C-10.62686224 44.24167066 -10.61831914 41.45797651 -10.59960938 38.67382812 C-10.57681876 35.10913167 -10.5899444 31.54563982 -10.61389923 27.98098755 C-10.6318483 24.5757707 -10.61927277 21.17087606 -10.609375 17.765625 C-10.61747192 16.4863916 -10.62556885 15.2071582 -10.63391113 13.88916016 C-10.62130249 12.70112793 -10.60869385 11.5130957 -10.59570312 10.2890625 C-10.59252075 9.24411621 -10.58933838 8.19916992 -10.58605957 7.12255859 C-9.45552694 1.04197216 -5.64528076 -0.11069178 0 0 Z " fill="#C9C9D4" transform="translate(1329.078125,333.609375)"/>
<path d="M0 0 C0.66 0 1.32 0 2 0 C2 4.95 2 9.9 2 15 C1.34 15 0.68 15 0 15 C-0.33 13.68 -0.66 12.36 -1 11 C-1.33 11.99 -1.66 12.98 -2 14 C-8.4 15.35384615 -8.4 15.35384615 -11.4375 13.5625 C-11.953125 13.046875 -12.46875 12.53125 -13 12 C-13 12.66 -13 13.32 -13 14 C-19.42548263 15.33359073 -19.42548263 15.33359073 -21.9375 13.875 C-23.36066991 11.36352369 -23.42674516 9.84496772 -23 7 C-21.78125 5.3203125 -21.78125 5.3203125 -20 4 C-17.6953125 3.9609375 -17.6953125 3.9609375 -15.125 4.375 C-12.07096225 4.80495887 -10.20919004 5.05113534 -7.1875 4.3125 C-5 4 -5 4 -2.1875 5.9375 C-1.465625 6.618125 -0.74375 7.29875 0 8 C0 5.36 0 2.72 0 0 Z " fill="#858B9C" transform="translate(350,450)"/>
<path d="M0 0 C2.97 0 5.94 0 9 0 C8.67 2.97 8.34 5.94 8 9 C7.34 9 6.68 9 6 9 C5.67 14.28 5.34 19.56 5 25 C2.36 25 -0.28 25 -3 25 C-2.48244596 16.55569721 -1.5439119 8.31913693 0 0 Z " fill="#581702" transform="translate(1325,743)"/>
<path d="M0 0 C0.66 0 1.32 0 2 0 C2.66 1.98 3.32 3.96 4 6 C6.31 6 8.62 6 11 6 C9.125 9.875 9.125 9.875 8 11 C7.63239269 13.32817964 7.29758419 15.6618385 7 18 C5.948125 17.814375 4.89625 17.62875 3.8125 17.4375 C0.42880118 17.04920669 -1.76425888 17.11752515 -5 18 C-5.103125 16.906875 -5.20625 15.81375 -5.3125 14.6875 C-5.99727202 11.01463192 -6.27919304 10.24762314 -9 8 C-9 7.34 -9 6.68 -9 6 C-6.69 6 -4.38 6 -2 6 C-1.34 4.02 -0.68 2.04 0 0 Z " fill="#FFC50C" transform="translate(219,448)"/>
<path d="M0 0 C0.66 0 1.32 0 2 0 C2.66 1.98 3.32 3.96 4 6 C6.31 6 8.62 6 11 6 C9.125 9.875 9.125 9.875 8 11 C7.63239269 13.32817964 7.29758419 15.6618385 7 18 C5.948125 17.814375 4.89625 17.62875 3.8125 17.4375 C0.42880118 17.04920669 -1.76425888 17.11752515 -5 18 C-5.103125 16.906875 -5.20625 15.81375 -5.3125 14.6875 C-5.99727202 11.01463192 -6.27919304 10.24762314 -9 8 C-9 7.34 -9 6.68 -9 6 C-6.69 6 -4.38 6 -2 6 C-1.34 4.02 -0.68 2.04 0 0 Z " fill="#FFC50C" transform="translate(187,448)"/>
<path d="M0 0 C0.66 0 1.32 0 2 0 C2.66 1.98 3.32 3.96 4 6 C6.31 6 8.62 6 11 6 C9.125 9.875 9.125 9.875 8 11 C7.63239269 13.32817964 7.29758419 15.6618385 7 18 C5.948125 17.814375 4.89625 17.62875 3.8125 17.4375 C0.42880118 17.04920669 -1.76425888 17.11752515 -5 18 C-5.103125 16.906875 -5.20625 15.81375 -5.3125 14.6875 C-5.99727202 11.01463192 -6.27919304 10.24762314 -9 8 C-9 7.34 -9 6.68 -9 6 C-6.69 6 -4.38 6 -2 6 C-1.34 4.02 -0.68 2.04 0 0 Z " fill="#FFC50C" transform="translate(155,448)"/>
<path d="M0 0 C0.66 0 1.32 0 2 0 C2.66 1.98 3.32 3.96 4 6 C6.31 6 8.62 6 11 6 C9.125 9.875 9.125 9.875 8 11 C7.63239269 13.32817964 7.29758419 15.6618385 7 18 C5.948125 17.814375 4.89625 17.62875 3.8125 17.4375 C0.42880118 17.04920669 -1.76425888 17.11752515 -5 18 C-5.103125 16.906875 -5.20625 15.81375 -5.3125 14.6875 C-5.99727202 11.01463192 -6.27919304 10.24762314 -9 8 C-9 7.34 -9 6.68 -9 6 C-6.69 6 -4.38 6 -2 6 C-1.34 4.02 -0.68 2.04 0 0 Z " fill="#FFC50C" transform="translate(123,448)"/>
<path d="M0 0 C0.66 0 1.32 0 2 0 C2.66 1.98 3.32 3.96 4 6 C6.31 6 8.62 6 11 6 C9.125 9.875 9.125 9.875 8 11 C7.63239269 13.32817964 7.29758419 15.6618385 7 18 C5.948125 17.814375 4.89625 17.62875 3.8125 17.4375 C0.42880118 17.04920669 -1.76425888 17.11752515 -5 18 C-5.103125 16.906875 -5.20625 15.81375 -5.3125 14.6875 C-5.99727202 11.01463192 -6.27919304 10.24762314 -9 8 C-9 7.34 -9 6.68 -9 6 C-6.69 6 -4.38 6 -2 6 C-1.34 4.02 -0.68 2.04 0 0 Z " fill="#FFC50C" transform="translate(91,448)"/>
<path d="M0 0 C5.75 0.75 5.75 0.75 8 3 C8.265625 5.49609375 8.265625 5.49609375 8.25 8.4375 C8.25515625 9.40558594 8.2603125 10.37367188 8.265625 11.37109375 C8 14 8 14 6 17 C2.5625 17.5 2.5625 17.5 -1 17 C-3.6099322 14.22168508 -3.96617917 12.27056665 -4.4375 8.5 C-3.93351879 4.4681503 -2.790071 2.87726072 0 0 Z " fill="#F3F3F3" transform="translate(372,204)"/>
<path d="M0 0 C0.99 0.66 1.98 1.32 3 2 C3.3984375 4.2421875 3.3984375 4.2421875 3.375 6.875 C3.38273438 7.73867187 3.39046875 8.60234375 3.3984375 9.4921875 C2.92547982 12.46903879 2.09361493 13.85232459 0 16 C-3.12525064 16.45576572 -5.05433497 16.69037987 -7.6640625 14.78515625 C-9.42870262 12.42714298 -9.40108347 10.92134828 -9.375 8 C-9.38273438 7.13375 -9.39046875 6.2675 -9.3984375 5.375 C-8.47427819 -0.13371433 -5.01944642 -0.522859 0 0 Z " fill="#F3F3F3" transform="translate(539,205)"/>
<path d="M0 0 C2.13207806 3.94026194 2.64194624 7.65053339 3.0625 12.0625 C3.14701416 12.9095752 3.23152832 13.75665039 3.31860352 14.62939453 C4.18118231 24.29261959 4.28715002 33.975872 4.48413086 43.66983032 C4.72368297 54.84103297 5.55745141 65.69300186 7.37890625 76.734375 C7.99838628 80.54472951 8.11857397 84.14376842 8 88 C3.13548695 83.13548695 3.5402556 72.98361857 2.9453125 66.359375 C2.86266144 65.46321472 2.78001038 64.56705444 2.69485474 63.64373779 C1.83552509 53.86246693 1.38450878 44.06640611 0.99462891 34.25683594 C0.87340908 31.2100127 0.74398136 28.16361754 0.61328125 25.1171875 C0.53078416 23.14585277 0.44873603 21.17449919 0.3671875 19.203125 C0.31097733 17.8623288 0.31097733 17.8623288 0.25363159 16.4944458 C0.03683149 10.99155873 -0.0327229 5.5071938 0 0 Z " fill="#E5E6E5" transform="translate(884,382)"/>
<path d="M0 0 C2.12825388 1.62419375 2.91362173 2.48730317 3.36328125 5.15625 C3.34652344 5.9296875 3.32976563 6.703125 3.3125 7.5 C3.30863281 8.2734375 3.30476562 9.046875 3.30078125 9.84375 C3 12 3 12 1 15 C-2.4375 15.4375 -2.4375 15.4375 -6 15 C-8.85576764 12.69696158 -8.98181881 11.14544949 -9.4375 7.5 C-9 4 -9 4 -7.3125 1.5625 C-4.54994945 -0.30408821 -3.26764255 -0.58649994 0 0 Z " fill="#BABFBD" transform="translate(932,327)"/>
<path d="M0 0 C3.4375 0.875 3.4375 0.875 5.4375 3.875 C5.76244847 7.44943322 5.81823056 10.00155931 4.375 13.3125 C2.4375 14.875 2.4375 14.875 -1.125 15.3125 C-2.259375 15.168125 -3.39375 15.02375 -4.5625 14.875 C-6.62770632 11.77719052 -6.85727024 10.9209519 -6.875 7.375 C-6.89175781 6.6015625 -6.90851562 5.828125 -6.92578125 5.03125 C-6.5625 2.875 -6.5625 2.875 -5.265625 1.0859375 C-3.5625 -0.125 -3.5625 -0.125 0 0 Z " fill="#BCC0BB" transform="translate(902.5625,327.125)"/>
<path d="M0 0 C0.66 0 1.32 0 2 0 C2.3403125 1.11375 2.680625 2.2275 3.03125 3.375 C7.93174279 18.98595472 13.71764971 32.8737666 25 45 C25.84433594 45.92425781 26.68867187 46.84851563 27.55859375 47.80078125 C34.07714716 54.64100493 41.08411285 59.90312513 49 65 C48.505 66.485 48.505 66.485 48 68 C48 67.34 48 66.68 48 66 C47.26136719 65.73316406 46.52273438 65.46632813 45.76171875 65.19140625 C41.2442891 63.24258582 37.76512746 60.12259375 34 57 C33.20207031 56.3503125 32.40414062 55.700625 31.58203125 55.03125 C15.02688908 40.92384745 5.40651448 22.84627217 0 2 C0 1.34 0 0.68 0 0 Z " fill="#E4E6E4" transform="translate(949,382)"/>
<path d="M0 0 C1.32 0 2.64 0 4 0 C4 5.94 4 11.88 4 18 C2.68 18 1.36 18 0 18 C0 15.69 0 13.38 0 11 C-2.64 11 -5.28 11 -8 11 C-8 13.31 -8 15.62 -8 18 C-8.99 18 -9.98 18 -11 18 C-11 12.39 -11 6.78 -11 1 C-10.01 1 -9.02 1 -8 1 C-8 3.31 -8 5.62 -8 8 C-5.36 8 -2.72 8 0 8 C0 5.36 0 2.72 0 0 Z " fill="#323632" transform="translate(92,40)"/>
<path d="M0 0 C1.134375 0.020625 2.26875 0.04125 3.4375 0.0625 C6.4375 6.8125 6.4375 6.8125 6.4375 9.0625 C9.4075 10.0525 12.3775 11.0425 15.4375 12.0625 C15.4375 12.3925 15.4375 12.7225 15.4375 13.0625 C14.0453125 13.495625 14.0453125 13.495625 12.625 13.9375 C9.33958333 14.95 9.33958333 14.95 6.4375 17.0625 C3.8125 17.25 3.8125 17.25 1.4375 17.0625 C0.4375 16.0625 0.4375 16.0625 0.375 13.5 C0.395625 12.695625 0.41625 11.89125 0.4375 11.0625 C1.7575 10.7325 3.0775 10.4025 4.4375 10.0625 C4.4375 9.4025 4.4375 8.7425 4.4375 8.0625 C3.32375 8.26875 2.21 8.475 1.0625 8.6875 C-0.13375 8.81125 -1.33 8.935 -2.5625 9.0625 C-4.5625 7.0625 -4.5625 7.0625 -4.75 4 C-4.4768176 -0.27985756 -4.4104386 0.07737612 0 0 Z " fill="#626564" transform="translate(826.5625,531.9375)"/>
<path d="M0 0 C5.45454545 0.45454545 5.45454545 0.45454545 8 3 C8.33 2.01 8.66 1.02 9 0 C12.375 -0.125 12.375 -0.125 16 0 C18 2 18 2 18.1953125 4.1640625 C18.17210937 4.97617187 18.14890625 5.78828125 18.125 6.625 C18.10695313 7.44226563 18.08890625 8.25953125 18.0703125 9.1015625 C18.04710937 9.72804688 18.02390625 10.35453125 18 11 C17.67 11 17.34 11 17 11 C16.67 8.36 16.34 5.72 16 3 C14.68 2.67 13.36 2.34 12 2 C12 4.97 12 7.94 12 11 C11.01 11 10.02 11 9 11 C8.67 10.34 8.34 9.68 8 9 C7.01 9.66 6.02 10.32 5 11 C2.4375 11.25 2.4375 11.25 0 11 C-2 9 -2 9 -2.25 5.5 C-2 2 -2 2 0 0 Z " fill="#7B879B" transform="translate(362,454)"/>
<path d="M0 0 C1.21816406 0.03480469 1.21816406 0.03480469 2.4609375 0.0703125 C3.68683594 0.09738281 3.68683594 0.09738281 4.9375 0.125 C5.87722656 0.15980469 5.87722656 0.15980469 6.8359375 0.1953125 C6.88980379 2.32003826 6.92866821 4.44514902 6.9609375 6.5703125 C6.98414063 7.75367188 7.00734375 8.93703125 7.03125 10.15625 C6.8359375 13.1953125 6.8359375 13.1953125 4.8359375 15.1953125 C2.14754365 15.46523156 -0.45548186 15.28268607 -3.1640625 15.1953125 C-3.4940625 14.2053125 -3.8240625 13.2153125 -4.1640625 12.1953125 C-1.8540625 12.5253125 0.4559375 12.8553125 2.8359375 13.1953125 C2.5059375 12.5353125 2.1759375 11.8753125 1.8359375 11.1953125 C0.17771977 10.82221351 -1.48983264 10.48830273 -3.1640625 10.1953125 C-4.1640625 9.1953125 -4.1640625 9.1953125 -4.3515625 5.7578125 C-4.15242648 1.97422818 -4.00575463 0.3615302 0 0 Z " fill="#D5D4CF" transform="translate(778.1640625,244.8046875)"/>
<path d="M0 0 C2.33944736 0.28730055 4.6739143 0.61936779 7 1 C8 5.75 8 5.75 8 8 C8.20625 8.825 8.4125 9.65 8.625 10.5 C8.74875 11.325 8.8725 12.15 9 13 C7 15 7 15 5.125 15.265625 C4.42375 15.26046875 3.7225 15.2553125 3 15.25 C2.29875 15.25515625 1.5975 15.2603125 0.875 15.265625 C-1 15 -1 15 -3 13 C-2.625 10.5 -2.625 10.5 -2 8 C-2 7.34 -2 6.68 -2 6 C-1.17647059 1.17647059 -1.17647059 1.17647059 0 0 Z " fill="#CED0CD" transform="translate(815,327)"/>
<path d="M0 0 C2.45862401 -0.05383848 4.9160755 -0.09359038 7.375 -0.125 C8.42300781 -0.15013672 8.42300781 -0.15013672 9.4921875 -0.17578125 C11.32897486 -0.19344267 13.16601963 -0.10303261 15 0 C17 2 17 2 17.1953125 4.1640625 C17.17210937 4.97617187 17.14890625 5.78828125 17.125 6.625 C17.10695313 7.44226563 17.08890625 8.25953125 17.0703125 9.1015625 C17.04710937 9.72804688 17.02390625 10.35453125 17 11 C15.68 11 14.36 11 13 11 C13 8.36 13 5.72 13 3 C12.01 3 11.02 3 10 3 C10 5.64 10 8.28 10 11 C9.01 11 8.02 11 7 11 C7 8.36 7 5.72 7 3 C6.01 3 5.02 3 4 3 C4 5.64 4 8.28 4 11 C2.68 11 1.36 11 0 11 C0 7.37 0 3.74 0 0 Z " fill="#E7ECE1" transform="translate(953,331)"/>
<path d="M0 0 C5.5952381 0.5952381 5.5952381 0.5952381 8 3 C7.68404492 4.67004829 7.34820041 6.33637583 7 8 C7.185625 8.886875 7.37125 9.77375 7.5625 10.6875 C7.706875 11.450625 7.85125 12.21375 8 13 C6 15 6 15 2.5 15.25 C-1 15 -1 15 -3 13 C-2.625 10.5 -2.625 10.5 -2 8 C-2 7.34 -2 6.68 -2 6 C-1.17647059 1.17647059 -1.17647059 1.17647059 0 0 Z " fill="#515F76" transform="translate(279,450)"/>
<path d="M0 0 C1.32 0 2.64 0 4 0 C4.33 2.97 4.66 5.94 5 9 C5.4125 8.34 5.825 7.68 6.25 7 C6.8275 6.34 7.405 5.68 8 5 C9.32 5 10.64 5 12 5 C11 7 10 9 9 11 C9.76501555 12.79540511 9.76501555 12.79540511 10.9375 14.625 C11.618125 15.73875 12.29875 16.8525 13 18 C11.35 18 9.7 18 8 18 C7.34 16.35 6.68 14.7 6 13 C5.34 13 4.68 13 4 13 C4 14.65 4 16.3 4 18 C2.68 18 1.36 18 0 18 C0 12.06 0 6.12 0 0 Z " fill="#19B971" transform="translate(134,40)"/>
<path d="M0 0 C2.5 0.375 2.5 0.375 5 1 C5.66 1 6.32 1 7 1 C7.33 0.67 7.66 0.34 8 0 C10.5 -0.125 10.5 -0.125 13 0 C14 1 14 1 14.09765625 2.84765625 C14.06510417 4.8984375 14.03255208 6.94921875 14 9 C10.66666667 9 7.33333333 9 4 9 C3.13375 9.020625 2.2675 9.04125 1.375 9.0625 C-1 9 -1 9 -2 8 C-2.1875 5.0625 -2.1875 5.0625 -2 2 C-1.34 1.34 -0.68 0.68 0 0 Z " fill="#616561" transform="translate(780,219)"/>
<path d="M0 0 C2.47923801 -0.02685095 4.9581884 -0.04676547 7.4375 -0.0625 C8.14455078 -0.07087891 8.85160156 -0.07925781 9.58007812 -0.08789062 C11.38693559 -0.09653588 13.19387603 -0.05220011 15 0 C16 1 16 1 16.09765625 3.28515625 C16.08605469 4.20167969 16.07445312 5.11820312 16.0625 6.0625 C16.05347656 6.98160156 16.04445313 7.90070313 16.03515625 8.84765625 C16.02355469 9.55792969 16.01195312 10.26820313 16 11 C15.01 11 14.02 11 13 11 C13 8.36 13 5.72 13 3 C12.01 3 11.02 3 10 3 C10 5.64 10 8.28 10 11 C8.68 11 7.36 11 6 11 C6 8.36 6 5.72 6 3 C5.01 3 4.02 3 3 3 C3 5.64 3 8.28 3 11 C2.01 11 1.02 11 0 11 C0 7.37 0 3.74 0 0 Z " fill="#E6F1EE" transform="translate(830,331)"/>
<path d="M0 0 C2.35546875 0.1640625 2.35546875 0.1640625 5 1 C6.36328125 3.3984375 6.36328125 3.3984375 7.3125 6.375 C7.63863281 7.35210937 7.96476563 8.32921875 8.30078125 9.3359375 C9 12 9 12 9 15 C7.68 15 6.36 15 5 15 C5 14.01 5 13.02 5 12 C3.02 12 1.04 12 -1 12 C-1 12.99 -1 13.98 -1 15 C-2.32 15 -3.64 15 -5 15 C-3.97137215 9.55432314 -2.75385216 4.88182883 0 0 Z " fill="#DFE4E0" transform="translate(764,241)"/>
<path d="M0 0 C0.66 0 1.32 0 2 0 C3.17571451 3.67410785 3.07366746 7.16929183 3 11 C2.195625 10.814375 1.39125 10.62875 0.5625 10.4375 C-0.283125 10.293125 -1.12875 10.14875 -2 10 C-2.33 10.33 -2.66 10.66 -3 11 C-4.99950636 11.04443347 -7.00038436 11.03920815 -9 11 C-10.32 11 -11.64 11 -13 11 C-13 8.03 -13 5.06 -13 2 C-12.34 2 -11.68 2 -11 2 C-10.67 2.66 -10.34 3.32 -10 4 C-9.34 3.34 -8.68 2.68 -8 2 C-5.31160615 1.73008094 -2.70858064 1.91262643 0 2 C0 1.34 0 0.68 0 0 Z " fill="#676A65" transform="translate(784,303)"/>
<path d="M0 0 C2.625 0.375 2.625 0.375 5 1 C5 1.66 5 2.32 5 3 C5.556875 2.484375 6.11375 1.96875 6.6875 1.4375 C9 0 9 0 11.75 0.3125 C12.86375 0.6528125 12.86375 0.6528125 14 1 C14.625 3.875 14.625 3.875 15 7 C13 9 13 9 10.375 9.125 C9.59125 9.08375 8.8075 9.0425 8 9 C7.67 8.01 7.34 7.02 7 6 C6.34 6 5.68 6 5 6 C4.67 6.99 4.34 7.98 4 9 C2.33388095 9.042721 0.66617115 9.04063832 -1 9 C-2 8 -2 8 -2.1875 5.0625 C-2 2 -2 2 0 0 Z " fill="#C8C8CB" transform="translate(180,360)"/>
<path d="M0 0 C1.65 0 3.3 0 5 0 C5 3.3 5 6.6 5 10 C5.66 10 6.32 10 7 10 C7 10.99 7 11.98 7 13 C6.34 13 5.68 13 5 13 C5 13.66 5 14.32 5 15 C3.68 15 2.36 15 1 15 C1 14.34 1 13.68 1 13 C-1.31 13 -3.62 13 -6 13 C-5.54890848 8.18835713 -3.39269527 3.45266716 0 0 Z " fill="#D1D8D6" transform="translate(915,327)"/>
<path d="M0 0 C2.9375 0.875 2.9375 0.875 4.9375 3.875 C5.2843602 7.69046222 5.47116895 10.00778796 3.4375 13.3125 C2.9425 13.828125 2.4475 14.34375 1.9375 14.875 C-0.3725 14.545 -2.6825 14.215 -5.0625 13.875 C-5.3925 12.885 -5.7225 11.895 -6.0625 10.875 C-3.0925 11.37 -3.0925 11.37 -0.0625 11.875 C0.5975 10.885 1.2575 9.895 1.9375 8.875 C0.98875 9.08125 0.04 9.2875 -0.9375 9.5 C-1.96875 9.62375 -3 9.7475 -4.0625 9.875 C-6.0625 7.875 -6.0625 7.875 -6.375 5.4375 C-6.0625 2.875 -6.0625 2.875 -4.9375 1 C-3.0625 -0.125 -3.0625 -0.125 0 0 Z " fill="#46526C" transform="translate(269.0625,450.125)"/>
<path d="M0 0 C2.56771603 3.30134918 3 4.72874492 3 9 C1.35 9 -0.3 9 -2 9 C-2 9.66 -2 10.32 -2 11 C-2.99 11 -3.98 11 -5 11 C-5 21.56 -5 32.12 -5 43 C-5.33 43 -5.66 43 -6 43 C-6.02505615 41.97527588 -6.0501123 40.95055176 -6.07592773 39.89477539 C-6.16984484 36.10590324 -6.27010317 32.31722119 -6.37231445 28.52856445 C-6.41572297 26.88635697 -6.45739358 25.24410261 -6.49731445 23.60180664 C-6.5548744 21.24611255 -6.61860892 18.89065572 -6.68359375 16.53515625 C-6.70866249 15.42733543 -6.70866249 15.42733543 -6.73423767 14.2971344 C-6.53548013 10.85699373 -6.53548013 10.85699373 -8 8 C-8.3125 5.625 -8.3125 5.625 -8 3 C-5.18144066 0.08077783 -4.20010777 0 0 0 Z " fill="#718B4A" transform="translate(89,184)"/>
<path d="M0 0 C0.66 0 1.32 0 2 0 C2 0.99 2 1.98 2 3 C5.7380022 3.96120056 8.2592975 3.80880054 12 3 C12.66 3.33 13.32 3.66 14 4 C14 5.32 14 6.64 14 8 C12.02 8 10.04 8 8 8 C8 8.99 8 9.98 8 11 C9.98 11 11.96 11 14 11 C13.67 11.66 13.34 12.32 13 13 C8.50886589 13 4.40461018 12.95234815 0 12 C-0.19573608 10.56359829 -0.38127816 9.12580496 -0.5625 7.6875 C-0.66691406 6.88699219 -0.77132813 6.08648438 -0.87890625 5.26171875 C-1 3 -1 3 0 0 Z " fill="#DCDCDC" transform="translate(1129,656)"/>
<path d="M0 0 C2.00240549 0.31856451 4.00211562 0.65421232 6 1 C8.00487668 0.69737711 10.00661779 0.37086181 12 0 C13 1 13 1 13.09765625 2.84765625 C13.04882812 5.92382812 13.04882812 5.92382812 13 9 C10 9 7 9 4 9 C3.13375 9.020625 2.2675 9.04125 1.375 9.0625 C-1 9 -1 9 -2 8 C-2.1875 5.0625 -2.1875 5.0625 -2 2 C-1.34 1.34 -0.68 0.68 0 0 Z " fill="#C7C4C4" transform="translate(429,360)"/>
<path d="M0 0 C1.794375 0.144375 3.58875 0.28875 5.4375 0.4375 C6.95150391 0.55931641 6.95150391 0.55931641 8.49609375 0.68359375 C11 1 11 1 12 2 C12.46594715 7.35839226 12.46594715 7.35839226 10.77734375 9.68359375 C8.47853506 11.38622788 7.14017258 11.31044229 4.3125 11.1875 C2.889375 11.125625 1.46625 11.06375 0 11 C0 7.37 0 3.74 0 0 Z " fill="#F4F5F3" transform="translate(92,197)"/>
<path d="M0 0 C2.375 1.3125 2.375 1.3125 4 3 C4 3.99 4 4.98 4 6 C2.68 6 1.36 6 0 6 C-0.33 5.34 -0.66 4.68 -1 4 C-2.32 4.33 -3.64 4.66 -5 5 C-5 6.98 -5 8.96 -5 11 C-0.545 10.505 -0.545 10.505 4 10 C2.9375 12.5 2.9375 12.5 1 15 C-2.94200857 15.64505595 -5.04848469 15.60994571 -8.4375 13.4375 C-10.60396028 10.05782196 -10.56288002 7.94016013 -10 4 C-7.24846472 -0.12730291 -4.82246105 -0.70327557 0 0 Z " fill="#E2E8E6" transform="translate(836,241)"/>
<path d="M0 0 C0.99 0 1.98 0 3 0 C3.33 0.99 3.66 1.98 4 3 C6.01508358 3.73323796 6.01508358 3.73323796 8 4 C8 6.64 8 9.28 8 12 C7.67 12 7.34 12 7 12 C7 9.69 7 7.38 7 5 C5.68 5 4.36 5 3 5 C3 7.31 3 9.62 3 12 C2.443125 11.814375 1.88625 11.62875 1.3125 11.4375 C-1.05608681 10.83463761 -1.05608681 10.83463761 -3.625 11.5625 C-4.40875 11.706875 -5.1925 11.85125 -6 12 C-8 10 -8 10 -8.25 7.5 C-8 5 -8 5 -6 3 C-3.375 3.375 -3.375 3.375 -1 4 C-0.67 2.68 -0.34 1.36 0 0 Z " fill="#C3C0C3" transform="translate(244,333)"/>
<path d="M0 0 C0.66 0 1.32 0 2 0 C2.33 3.3 2.66 6.6 3 10 C3.99 10 4.98 10 6 10 C6.33 6.7 6.66 3.4 7 0 C7.99 0 8.98 0 10 0 C10.33 1.65 10.66 3.3 11 5 C11.66 4.34 12.32 3.68 13 3 C15.625 3.375 15.625 3.375 18 4 C17.01 4.66 16.02 5.32 15 6 C15.99 6.66 16.98 7.32 18 8 C17.67 9.32 17.34 10.64 17 12 C15.35 12 13.7 12 12 12 C11.67 11.01 11.34 10.02 11 9 C10.34 9 9.68 9 9 9 C8.67 9.99 8.34 10.98 8 12 C5.125 12.125 5.125 12.125 2 12 C0 10 0 10 -0.1953125 7.6171875 C-0.17210937 6.71226563 -0.14890625 5.80734375 -0.125 4.875 C-0.10695313 3.96492188 -0.08890625 3.05484375 -0.0703125 2.1171875 C-0.04710937 1.41851562 -0.02390625 0.71984375 0 0 Z " fill="#A8A6A8" transform="translate(913,43)"/>
<path d="M0 0 C6.3782235 -0.36103152 6.3782235 -0.36103152 8.9375 1.125 C10.50422245 3.88980433 10.38976435 5.88188517 10 9 C8.9375 10.875 8.9375 10.875 7 12 C3.3125 12.1875 3.3125 12.1875 0 12 C0 8.04 0 4.08 0 0 Z " fill="#B3E8CD" transform="translate(114,544)"/>
<path d="M0 0 C0.33 0.99 0.66 1.98 1 3 C-0.65234375 5.91796875 -0.65234375 5.91796875 -2.9375 9.1875 C-3.32357422 9.74630859 -3.70964844 10.30511719 -4.10742188 10.88085938 C-5.06242753 12.26031198 -6.03004093 13.63102056 -7 15 C-6.34 15.33 -5.68 15.66 -5 16 C-6.32 16 -7.64 16 -9 16 C-10.42866464 13.04206054 -11.54460706 10.26537435 -12 7 C-9.57965319 0.91551705 -6.3413831 -1.50190652 0 0 Z " fill="#F8581E" transform="translate(101,177)"/>
<path d="M0 0 C0.6708712 1.6232687 1.33657029 3.24867578 2 4.875 C2.556875 6.23238281 2.556875 6.23238281 3.125 7.6171875 C4 10 4 10 4 12 C-2.435 12.495 -2.435 12.495 -9 13 C-10 8 -10 8 -8.671875 5.76171875 C-8.03765625 5.07722656 -7.4034375 4.39273438 -6.75 3.6875 C-5.81414062 2.64142578 -5.81414062 2.64142578 -4.859375 1.57421875 C-3 0 -3 0 0 0 Z " fill="#DB5F26" transform="translate(1031,208)"/>
<path d="M0 0 C3.39605342 0.52246976 5.90149219 0.1229782 9.25 -0.5 C10.25 0.5 10.25 0.5 10.34765625 2.34765625 C10.29882812 5.42382812 10.29882812 5.42382812 10.25 8.5 C5.58333333 8.5 0.91666667 8.5 -3.75 8.5 C-4.08 7.84 -4.41 7.18 -4.75 6.5 C-2.275 6.995 -2.275 6.995 0.25 7.5 C-1.00541557 4.98916886 -2.25063488 4.62874554 -4.75 3.5 C-4.75 2.51 -4.75 1.52 -4.75 0.5 C-2.75 -0.5 -2.75 -0.5 0 0 Z " fill="#BCBABC" transform="translate(482.75,336.5)"/>
<path d="M0 0 C2.5 0.375 2.5 0.375 5 1 C7.10610934 1.08084521 7.10610934 1.08084521 9.5 0.375 C10.325 0.25125 11.15 0.1275 12 0 C14 2 14 2 14 5 C12.02 5 10.04 5 8 5 C8.33 5.66 8.66 6.32 9 7 C10.65 7 12.3 7 14 7 C13.67 7.66 13.34 8.32 13 9 C10.625 9.125 10.625 9.125 8 9 C7.34 8.34 6.68 7.68 6 7 C5.34 7.66 4.68 8.32 4 9 C1.4375 9.1875 1.4375 9.1875 -1 9 C-2 8 -2 8 -2.1875 5.0625 C-2 2 -2 2 0 0 Z " fill="#B0AFB3" transform="translate(676,46)"/>
<path d="M0 0 C0.66 0 1.32 0 2 0 C2 0.66 2 1.32 2 2 C2.95712891 1.98259766 2.95712891 1.98259766 3.93359375 1.96484375 C5.17302734 1.95130859 5.17302734 1.95130859 6.4375 1.9375 C7.26121094 1.92589844 8.08492187 1.91429687 8.93359375 1.90234375 C11 2 11 2 12 3 C12.14115161 5.67058851 12.04247107 8.32432238 12 11 C10.18757948 11.02687279 8.37504767 11.04633715 6.5625 11.0625 C5.55316406 11.07410156 4.54382813 11.08570313 3.50390625 11.09765625 C1 11 1 11 0 10 C-1.20481928 2.40963855 -1.20481928 2.40963855 0 0 Z " fill="#B9B6B3" transform="translate(879,44)"/>
<path d="M0 0 C0.99 0.33 1.98 0.66 3 1 C3 2.98 3 4.96 3 7 C2.34 7 1.68 7 1 7 C1 7.66 1 8.32 1 9 C-5.42548263 10.33359073 -5.42548263 10.33359073 -7.9375 8.875 C-9.36066991 6.36352369 -9.42674516 4.84496772 -9 2 C-6.63077249 -1.94871251 -4.07751348 -1.01937837 0 0 Z " fill="#B0B5BB" transform="translate(336,455)"/>
<path d="M0 0 C2.68930863 0.94125802 3.95731359 1.47526558 5.5 3.875 C5.3579936 6.71512798 4.82548508 8.38677239 3.25 10.75 C1.5 11.875 1.5 11.875 -1 11.75 C-3.68930863 10.80874198 -4.95731359 10.27473442 -6.5 7.875 C-6.3579936 5.03487202 -5.82548508 3.36322761 -4.25 1 C-2.5 -0.125 -2.5 -0.125 0 0 Z " fill="#7B7E7B" transform="translate(1185.5,38.125)"/>
<path d="M0 0 C3.63 0 7.26 0 11 0 C12.32229189 2.64458379 12.09677194 4.67761301 12.0625 7.625 C12.05347656 8.62789062 12.04445312 9.63078125 12.03515625 10.6640625 C12.02355469 11.43492188 12.01195312 12.20578125 12 13 C11.01 13 10.02 13 9 13 C8.67 10.03 8.34 7.06 8 4 C6.68 3.67 5.36 3.34 4 3 C4 6.3 4 9.6 4 13 C2.68 13 1.36 13 0 13 C0 8.71 0 4.42 0 0 Z " fill="#0BB569" transform="translate(119,45)"/>
<path d="M0 0 C1.32 0 2.64 0 4 0 C4.33 1.98 4.66 3.96 5 6 C5.66 5.34 6.32 4.68 7 4 C9.125 4.375 9.125 4.375 11 5 C10.01 5.99 9.02 6.98 8 8 C8.309375 8.598125 8.61875 9.19625 8.9375 9.8125 C10 12 10 12 11 15 C8.5625 14.625 8.5625 14.625 6 14 C5.67 13.34 5.34 12.68 5 12 C4.67 12.99 4.34 13.98 4 15 C2.68 15 1.36 15 0 15 C0 10.05 0 5.1 0 0 Z " fill="#D8E9E7" transform="translate(941,327)"/>
<path d="M0 0 C2.6875 0.3125 2.6875 0.3125 5 1 C5 3.64 5 6.28 5 9 C1.65747276 9.07427838 -0.8035914 9.06546953 -4 8 C-4.33 8.33 -4.66 8.66 -5 9 C-7.5 9.125 -7.5 9.125 -10 9 C-11 8 -11 8 -11.0625 4.9375 C-11.041875 3.968125 -11.02125 2.99875 -11 2 C-10.67 2.66 -10.34 3.32 -10 4 C-5.23361207 3.77482031 -5.23361207 3.77482031 -1.375 1.375 C-0.92125 0.92125 -0.4675 0.4675 0 0 Z " fill="#C0BCBD" transform="translate(229,336)"/>
<path d="M0 0 C1.875 1.1875 1.875 1.1875 3 3 C2.625 5.375 2.625 5.375 2 8 C2.185625 8.886875 2.37125 9.77375 2.5625 10.6875 C2.706875 11.450625 2.85125 12.21375 3 13 C1 15 1 15 -2.625 15.125 C-3.73875 15.08375 -4.8525 15.0425 -6 15 C-6.66 13.68 -7.32 12.36 -8 11 C-5.69 11.33 -3.38 11.66 -1 12 C-1 11.01 -1 10.02 -1 9 C-1.99 9 -2.98 9 -4 9 C-4 8.01 -4 7.02 -4 6 C-3.01 6 -2.02 6 -1 6 C-1 5.01 -1 4.02 -1 3 C-1.598125 3.33 -2.19625 3.66 -2.8125 4 C-5 5 -5 5 -8 5 C-7.625 3.0625 -7.625 3.0625 -7 1 C-4.45132831 -0.27433584 -2.82594567 -0.27570202 0 0 Z " fill="#E9EDE9" transform="translate(789,327)"/>
<path d="M0 0 C0.33 0.66 0.66 1.32 1 2 C3.54980798 3.00171028 4.91910114 3.01733547 7.625 2.4375 C8.40875 2.293125 9.1925 2.14875 10 2 C12 4 12 4 12.1875 7.0625 C12 10 12 10 11 11 C9.33388095 11.042721 7.66617115 11.04063832 6 11 C5.34 11 4.68 11 4 11 C2.66216607 10.68521554 1.32796291 10.35412344 0 10 C-1.125 2.25 -1.125 2.25 0 0 Z " fill="#C3C3C7" transform="translate(152,334)"/>
<path d="M0 0 C0.66 0.66 1.32 1.32 2 2 C1.53846154 8.46153846 1.53846154 8.46153846 -1 11 C0.32 11.33 1.64 11.66 3 12 C3 12.99 3 13.98 3 15 C-0.63 15 -4.26 15 -8 15 C-7.67 13.68 -7.34 12.36 -7 11 C-6.360625 10.71125 -5.72125 10.4225 -5.0625 10.125 C-2.65296263 9.09494127 -2.65296263 9.09494127 -1.75 5.875 C-1.5025 4.92625 -1.255 3.9775 -1 3 C-1.598125 3.33 -2.19625 3.66 -2.8125 4 C-5 5 -5 5 -8 5 C-7.625 3.0625 -7.625 3.0625 -7 1 C-4.48718205 -0.25640898 -2.78302919 -0.20872719 0 0 Z " fill="#E8EDEA" transform="translate(886,327)"/>
<path d="M0 0 C1.670625 0.061875 1.670625 0.061875 3.375 0.125 C3.45586147 1.91593191 3.51412702 3.70789628 3.5625 5.5 C3.59730469 6.49773438 3.63210938 7.49546875 3.66796875 8.5234375 C3.57128906 9.38195313 3.47460938 10.24046875 3.375 11.125 C0.375 13.125 0.375 13.125 -2.25 12.875 C-3.03375 12.6275 -3.8175 12.38 -4.625 12.125 C-4.955 11.465 -5.285 10.805 -5.625 10.125 C-4.965 9.795 -4.305 9.465 -3.625 9.125 C-4.285 8.465 -4.945 7.805 -5.625 7.125 C-5.875 4.625 -5.875 4.625 -5.625 2.125 C-3.625 0.125 -3.625 0.125 0 0 Z " fill="#D0D1CD" transform="translate(1217.625,45.875)"/>
<path d="M0 0 C6 0 6 0 7.875 1.125 C9.52854531 3.88090884 9.39365568 5.85075452 9 9 C7.875 10.875 7.875 10.875 6 12 C4.02 12 2.04 12 0 12 C0 8.04 0 4.08 0 0 Z " fill="#60635B" transform="translate(760,302)"/>
<path d="M0 0 C6.72 0.72 6.72 0.72 8 2 C8.3125 4.3125 8.3125 4.3125 8 7 C6 9.3125 6 9.3125 4 11 C5.32 11.33 6.64 11.66 8 12 C8 12.99 8 13.98 8 15 C4.7 15 1.4 15 -2 15 C-0.85885245 10.43540982 0.71430233 9.20144901 4 6 C4 5.34 4 4.68 4 4 C3.01 3.67 2.02 3.34 1 3 C1 3.66 1 4.32 1 5 C-0.32 5 -1.64 5 -3 5 C-1.125 1.125 -1.125 1.125 0 0 Z " fill="#EFF1EC" transform="translate(802,327)"/>
<path d="M0 0 C0.99 0.33 1.98 0.66 3 1 C4.1875 4.5625 4.1875 4.5625 5 8 C6.41377341 5.36095629 7.37240135 2.92879371 8 0 C8.99 0 9.98 0 11 0 C11.99 2.97 12.98 5.94 14 9 C14.99 6.03 15.98 3.06 17 0 C17.33 0 17.66 0 18 0 C17.40380045 4.86896303 16.43023178 9.32790951 15 14 C14.01 13.67 13.02 13.34 12 13 C10.8125 9.4375 10.8125 9.4375 10 6 C9.01 8.64 8.02 11.28 7 14 C6.01 14 5.02 14 4 14 C2.68 9.38 1.36 4.76 0 0 Z " fill="#CBCBCB" transform="translate(1149,655)"/>
<path d="M0 0 C3 0.25 3 0.25 5 2.25 C5.125 4.875 5.125 4.875 5 7.25 C3.68 7.58 2.36 7.91 1 8.25 C2.32 8.25 3.64 8.25 5 8.25 C4.67 9.24 4.34 10.23 4 11.25 C0.625 11.375 0.625 11.375 -3 11.25 C-5 9.25 -5 9.25 -5.25 5.75 C-4.93427155 1.32980166 -4.46370491 0.37197541 0 0 Z " fill="#E2E4E0" transform="translate(901,244.75)"/>
<path d="M0 0 C3 0.25 3 0.25 5 2.25 C5.125 4.875 5.125 4.875 5 7.25 C3.68 7.58 2.36 7.91 1 8.25 C2.32 8.25 3.64 8.25 5 8.25 C4.67 9.24 4.34 10.23 4 11.25 C0.625 11.375 0.625 11.375 -3 11.25 C-5 9.25 -5 9.25 -5.25 5.75 C-4.93427155 1.32980166 -4.46370491 0.37197541 0 0 Z " fill="#E2E4E0" transform="translate(869,244.75)"/>
<path d="M0 0 C0.33 0.66 0.66 1.32 1 2 C1.66 2.33 2.32 2.66 3 3 C3 5.64 3 8.28 3 11 C1.68 10.34 0.36 9.68 -1 9 C-1.66 9.66 -2.32 10.32 -3 11 C-5.5 11.3125 -5.5 11.3125 -8 11 C-10 8 -10 8 -9.625 5.3125 C-9.41875 4.549375 -9.2125 3.78625 -9 3 C-5.846632 2.29925156 -3.27275026 2 0 2 C0 1.34 0 0.68 0 0 Z " fill="#BAB8B8" transform="translate(903,44)"/>
<path d="M0 0 C3 -0.3125 3 -0.3125 6 0 C8 2 8 2 8.1953125 4.1640625 C8.13020833 6.44270833 8.06510417 8.72135417 8 11 C5.03 11 2.06 11 -1 11 C-1.33 9.35 -1.66 7.7 -2 6 C-1.195625 5.71125 -0.39125 5.4225 0.4375 5.125 C3.1326468 4.26737432 3.1326468 4.26737432 4 2 C2.02 2.33 0.04 2.66 -2 3 C-1.34 2.01 -0.68 1.02 0 0 Z " fill="#E4E3DB" transform="translate(801,245)"/>
<path d="M0 0 C0.33 0.66 0.66 1.32 1 2 C1.66 2.33 2.32 2.66 3 3 C2.34 3 1.68 3 1 3 C1 5.31 1 7.62 1 10 C1.66 10.33 2.32 10.66 3 11 C2.38125 10.835 1.7625 10.67 1.125 10.5 C-0.96063386 9.92365356 -0.96063386 9.92365356 -3 10 C-3.33 10.33 -3.66 10.66 -4 11 C-6.5 11.125 -6.5 11.125 -9 11 C-10 10 -10 10 -10.1875 7.0625 C-10 4 -10 4 -8 2 C-6.32457024 2.28604898 -4.65614657 2.61781233 -3 3 C-2.67 2.67 -2.34 2.34 -2 2 C-1.34 2 -0.68 2 0 2 C0 1.34 0 0.68 0 0 Z " fill="#C5C2C5" transform="translate(538,334)"/>
<path d="M0 0 C6.15234375 -0.09765625 6.15234375 -0.09765625 8 0 C9 1 9 1 9.0625 3.8125 C9.041875 4.864375 9.02125 5.91625 9 7 C8.78918149 10.89459074 8.78918149 10.89459074 10 14 C9.01 13.67 8.02 13.34 7 13 C6.690625 12.34 6.38125 11.68 6.0625 11 C5.17972859 8.79394438 5.17972859 8.79394438 2.875 8.25 C2.25625 8.1675 1.6375 8.085 1 8 C1 9.98 1 11.96 1 14 C0.67 14 0.34 14 0 14 C0 9.38 0 4.76 0 0 Z " fill="#728095" transform="translate(397,451)"/>
<path d="M0 0 C5.75 -0.125 5.75 -0.125 8 1 C8 4.3 8 7.6 8 11 C5.03 11 2.06 11 -1 11 C-1.33 9.35 -1.66 7.7 -2 6 C-0.02 5.34 1.96 4.68 4 4 C1.9254644 2.7763932 1.9254644 2.7763932 -1 3 C-0.67 2.01 -0.34 1.02 0 0 Z " fill="#E0E6E3" transform="translate(843,245)"/>
<path d="M0 0 C1.32 0 2.64 0 4 0 C4 2.64 4 5.28 4 8 C4.99 7.67 5.98 7.34 7 7 C7.33 4.69 7.66 2.38 8 0 C8.99 0 9.98 0 11 0 C11 3.63 11 7.26 11 11 C4.1640625 11.1953125 4.1640625 11.1953125 2 11 C0 9 0 9 -0.1953125 6.8359375 C-0.17210937 6.02382812 -0.14890625 5.21171875 -0.125 4.375 C-0.10695313 3.55773437 -0.08890625 2.74046875 -0.0703125 1.8984375 C-0.04710937 1.27195313 -0.02390625 0.64546875 0 0 Z " fill="#E1E9E5" transform="translate(786,245)"/>
<path d="M0 0 C2 2 2 2 2.3125 5 C2.1578125 6.485 2.1578125 6.485 2 8 C-1.22373677 10.14915785 -2.26703674 10.38286803 -6 10 C-8 8 -8 8 -8.3125 5 C-8.209375 4.01 -8.10625 3.02 -8 2 C-4.77626323 -0.14915785 -3.73296326 -0.38286803 0 0 Z " fill="#E1E1E1" transform="translate(1205,659)"/>
<path d="M0 0 C0.99 0 1.98 0 3 0 C3 3.96 3 7.92 3 12 C-3.15234375 12.09765625 -3.15234375 12.09765625 -5 12 C-6 11 -6 11 -6.1875 8.0625 C-6 5 -6 5 -4 3 C-2.68 3 -1.36 3 0 3 C0 2.01 0 1.02 0 0 Z " fill="#C6EDD8" transform="translate(188,544)"/>
<path d="M0 0 C6.8359375 -0.1953125 6.8359375 -0.1953125 9 0 C11 2 11 2 11.1953125 4.1640625 C11.17210937 4.97617188 11.14890625 5.78828125 11.125 6.625 C11.10695313 7.44226563 11.08890625 8.25953125 11.0703125 9.1015625 C11.03550781 10.04128906 11.03550781 10.04128906 11 11 C9.68 11 8.36 11 7 11 C7 8.36 7 5.72 7 3 C5.68 3 4.36 3 3 3 C3 5.64 3 8.28 3 11 C2.01 11 1.02 11 0 11 C0 7.37 0 3.74 0 0 Z " fill="#EAEDE0" transform="translate(876,245)"/>
<path d="M0 0 C1.671549 0.30791692 3.33805547 0.64386903 5 1 C6.32 0.67 7.64 0.34 9 0 C9 2.97 9 5.94 9 9 C7.68 8.67 6.36 8.34 5 8 C4.13375 8.185625 3.2675 8.37125 2.375 8.5625 C1.59125 8.706875 0.8075 8.85125 0 9 C-2 7 -2 7 -2.25 4.5 C-2 2 -2 2 0 0 Z " fill="#C2C0C0" transform="translate(770,46)"/>
<path d="M0 0 C3.375 -0.125 3.375 -0.125 7 0 C9 2 9 2 9.1875 5.0625 C9 8 9 8 8 9 C6.33382885 9.04063832 4.66611905 9.042721 3 9 C3 9.99 3 10.98 3 12 C2.01 12 1.02 12 0 12 C0 8.04 0 4.08 0 0 Z " fill="#C5EEDA" transform="translate(218,547)"/>
<path d="M0 0 C0.33 0 0.66 0 1 0 C1 4.95 1 9.9 1 15 C-1.31 15 -3.62 15 -6 15 C-8 13 -8 13 -8.3125 10 C-8.209375 9.01 -8.10625 8.02 -8 7 C-5 5 -5 5 -2.3125 5.375 C-1.549375 5.58125 -0.78625 5.7875 0 6 C0 4.02 0 2.04 0 0 Z " fill="#DCDCDC" transform="translate(1193,654)"/>
<path d="M0 0 C3.375 -0.125 3.375 -0.125 7 0 C9 2 9 2 9.25 4.5 C9 7 9 7 7 9 C5.68 9 4.36 9 3 9 C3 9.99 3 10.98 3 12 C2.01 12 1.02 12 0 12 C0 8.04 0 4.08 0 0 Z " fill="#C8EED3" transform="translate(208,547)"/>
<path d="M0 0 C1.32 0 2.64 0 4 0 C4.6708712 1.6232687 5.33657029 3.24867578 6 4.875 C6.556875 6.23238281 6.556875 6.23238281 7.125 7.6171875 C8 10 8 10 8 12 C5.0703125 11.56054688 5.0703125 11.56054688 2.140625 11.12109375 C-0.33941547 10.87452051 -0.33941547 10.87452051 -4 12 C-2.68 8.04 -1.36 4.08 0 0 Z " fill="#D6F3E2" transform="translate(199,544)"/>
<path d="M0 0 C1.98 0 3.96 0 6 0 C7 1 7 1 7.09765625 3.50390625 C7.08605469 4.51324219 7.07445312 5.52257812 7.0625 6.5625 C7.05347656 7.57441406 7.04445313 8.58632813 7.03515625 9.62890625 C7.02355469 10.41136719 7.01195312 11.19382812 7 12 C4.69 12 2.38 12 0 12 C0 8.04 0 4.08 0 0 Z " fill="#370F01" transform="translate(543,756)"/>
<path d="M0 0 C1.4540625 0.0309375 1.4540625 0.0309375 2.9375 0.0625 C2.9375 1.3825 2.9375 2.7025 2.9375 4.0625 C3.5975 4.0625 4.2575 4.0625 4.9375 4.0625 C5.2675 3.0725 5.5975 2.0825 5.9375 1.0625 C7.4375 2.3125 7.4375 2.3125 8.9375 4.0625 C8.9375 5.3825 8.9375 6.7025 8.9375 8.0625 C7.7928125 8.000625 7.7928125 8.000625 6.625 7.9375 C3.71031584 7.84169176 3.71031584 7.84169176 0.9375 10.0625 C0.9375 9.4025 0.9375 8.7425 0.9375 8.0625 C-0.7125 7.7325 -2.3625 7.4025 -4.0625 7.0625 C-4.10504356 5.06295254 -4.10330783 3.06208364 -4.0625 1.0625 C-3.0625 0.0625 -3.0625 0.0625 0 0 Z " fill="#E1E1E1" transform="translate(1157.0625,681.9375)"/>
<path d="M0 0 C-0.42594588 1.44096586 -0.86626633 2.87768712 -1.3125 4.3125 C-1.55613281 5.11300781 -1.79976562 5.91351563 -2.05078125 6.73828125 C-3.04182023 9.09964573 -4.08074943 10.33879993 -6 12 C-6 11.34 -6 10.68 -6 10 C-7.98 10 -9.96 10 -12 10 C-10.94124926 6.59687262 -9.99097846 3.98646769 -8 1 C-2.54545455 -1.27272727 -2.54545455 -1.27272727 0 0 Z " fill="#FE814F" transform="translate(107,167)"/>
</svg>
